M48
;Layer_Color=9474304
;FILE_FORMAT=4:4
METRIC,LZ
;TYPE=PLATED
T01F00S00C0.2000
T02F00S00C0.7100
;TYPE=NON_PLATED
T03F00S00C0.9000
%
T01
X00056Y00028
X00063286Y00028842
X0007Y00028
X00075Y00039
X00081Y0004
Y0004525
X0008375Y0005125
X0008685Y00038349
X00086393Y00023099
X00094Y00027
X00100786Y00028842
X00108Y00025
X00119Y00019
X00129959Y00017773
X00143974Y00019649
X00146289Y000316
X00145Y00043
X00143Y00048
X00162496Y00045244
X001767Y00045657
X0017Y00035
X00174001Y00028
X00164001
X00169001Y00018
X00179001
X00189001
X00184001Y00008
X00174001
X00159001Y00018
X00117Y000385
X00112Y00039
X00119Y0004475
Y0005125
X000615Y00049
X00046Y0005075
X0004935Y00038349
X00079389Y00015862
X00043726Y00021917
X00035Y00023
X00025786Y00028842
X0002393Y0001896
X00017Y00022
X0001Y0002
X00005Y00025
X0000625Y00034
X0001185Y00038349
X00007593Y00042866
X00007Y00051
X00041Y00051
X00044Y00042
X00040236Y00038528
X000275Y00054
X000225
X000125Y00059
X00019Y00068
X00024Y00069
X00034Y00064
X0003325Y0007925
Y0008425
X00028Y00081
X00033894Y00093037
X00040834Y00089477
X00039Y00108
X00044513Y00116472
X000375Y00122
X00039001Y00138
X00029001
X000175Y00137
Y0014375
Y001275
Y00115
X00013066Y00107111
X00006376Y00106309
X00005Y00115
X00012Y001
X00017599Y000949
X00022116Y00099157
X0002725Y0010025
X00007092Y00080964
X00004331Y00067677
X00044459Y0013258
X00044001Y00148
X00034001
X00054001
X0006525Y0014625
X000655Y00133
X00054475Y0013307
X00059001Y00138
X00058963Y00127158
X0007Y00116
X0007625Y00118
X000815Y0011675
X00084249Y00112
X00077
X00079Y00107594
X00078429Y00099472
X00072075Y00099993
X00062249Y00101
X00057Y001
X00060374Y00089553
X00067Y00089
X00066675Y00081051
X0007375Y0008125
X00076175Y00089503
X00084Y0009
X00089Y00082
X00094124Y00086747
X00099Y00085
X00106
X00112402Y00080856
X00119Y0008
Y00085
Y001
X001175Y00108
X0011718Y0011425
X00117384Y00120318
X00110399Y00116651
X0011Y00099
X00099749Y00101
X00094749
X00096463Y00127158
X00095Y0014
X0009925Y0014575
X00106Y00134
X00119001Y00138
X0011901Y00146783
X00144001Y00148
X00145204Y00140485
X00139001Y00138
X00137Y00126
X0014Y00122
X00147666Y00122695
X00149Y00115
X00145Y00111
X0015Y00103
X00149Y00093
X00138Y00094
X00133Y00092
Y00097
X00131965Y00102963
X00133705Y00080904
X00139889Y00080977
X00145Y00078
X00141Y00066
X00132882Y00062337
X00135Y00055
X00149Y00053
X0016541Y00056626
X00163Y00063
X00166Y00069
X00163Y00075
Y00085
X00165934Y00091006
X00171278Y00087749
X00170476Y00099515
X0017Y00107
X00163Y00106
X0017Y00115
X00177383Y00112128
X00175Y00125
X00169001Y00138
X00163Y00133
X00154544Y00148109
X00174001Y00148
X00175Y0016
X00185
X0019Y00155
X00133Y00129
X00087269Y00134372
X00079001Y00138
X0007925Y0014675
X00079082Y00068
X00071388Y00069485
X00070864Y00063981
X00061578Y0006736
X00052Y00069
X00053Y00064
X00047Y000635
X00048Y0005875
X0006Y000535
X00065
X00087Y00063
X000945Y00066
X00107745Y00067277
X0010875Y00062379
X00119Y00066
X001025Y00054
X000975
X00087Y000735
X00058Y00081
X00048738Y00088272
X00178259Y00071291
X00176863Y00055641
T02
X0004785Y0000875
X0006055
X0007325
X0008595
X0009865
X0011135
X0012405
X0013675
X0014945
X0016215
X0018675Y0003005
Y0004275
X0003515Y0000875
X0002245
X0000975
X0001025Y0015725
X0002295
X0003565
X0004835
X0006105
X0007375
X0008645
X0009915
X0011185
X0012455
X0013725
X0014995
X0016265
X0018675Y0014435
Y0013165
Y0011895
Y0010625
Y0009355
Y0008085
Y0006815
Y0005545
T03
X00028Y00117
Y0013
M30
