G04*
G04 #@! TF.GenerationSoftware,Altium Limited,Altium Designer,25.0.2 (28)*
G04*
G04 Layer_Color=8421504*
%FSLAX44Y44*%
%MOMM*%
G71*
G04*
G04 #@! TF.SameCoordinates,86524C76-892E-4E36-895C-82D9F112F233*
G04*
G04*
G04 #@! TF.FilePolarity,Positive*
G04*
G01*
G75*
%ADD13R,0.3500X0.2500*%
%ADD14R,0.3294X0.4048*%
%ADD15R,0.4048X0.3294*%
%ADD16R,0.2500X0.3500*%
%ADD17R,0.5000X0.3000*%
%ADD18R,0.3000X0.5000*%
%ADD19R,0.7000X0.2000*%
%ADD20R,0.9500X0.9500*%
D13*
X114000Y64000D02*
D03*
Y69500D02*
D03*
Y75000D02*
D03*
Y91000D02*
D03*
Y85500D02*
D03*
Y80000D02*
D03*
X45500Y107250D02*
D03*
Y101750D02*
D03*
X83000D02*
D03*
Y107250D02*
D03*
X76254Y48267D02*
D03*
Y53766D02*
D03*
X114000Y48250D02*
D03*
Y53750D02*
D03*
X12500Y83750D02*
D03*
Y89250D02*
D03*
Y78250D02*
D03*
Y72750D02*
D03*
X17500Y92500D02*
D03*
Y87000D02*
D03*
Y69500D02*
D03*
Y75000D02*
D03*
X119000D02*
D03*
Y69500D02*
D03*
X119000Y105750D02*
D03*
Y100250D02*
D03*
X119000Y91000D02*
D03*
Y85500D02*
D03*
X12500Y41000D02*
D03*
Y46500D02*
D03*
X72249Y114000D02*
D03*
Y108500D02*
D03*
X109749Y114000D02*
D03*
Y108500D02*
D03*
X50000Y41000D02*
D03*
Y46500D02*
D03*
X87500Y41000D02*
D03*
Y46500D02*
D03*
X12500Y55750D02*
D03*
Y50250D02*
D03*
X72249Y99250D02*
D03*
Y104750D02*
D03*
X109749Y99250D02*
D03*
Y104750D02*
D03*
X50000Y55750D02*
D03*
Y50250D02*
D03*
X87500Y55750D02*
D03*
Y50250D02*
D03*
X8499Y50243D02*
D03*
Y55743D02*
D03*
X76250Y104757D02*
D03*
Y99257D02*
D03*
X113750Y104757D02*
D03*
Y99257D02*
D03*
X45999Y50243D02*
D03*
Y55743D02*
D03*
X83499Y50243D02*
D03*
Y55743D02*
D03*
X17500Y78250D02*
D03*
Y83750D02*
D03*
X12750Y28500D02*
D03*
Y34000D02*
D03*
D03*
Y28500D02*
D03*
X71999Y126500D02*
D03*
Y121000D02*
D03*
D03*
Y126500D02*
D03*
X109499D02*
D03*
Y121000D02*
D03*
D03*
Y126500D02*
D03*
X50250Y28500D02*
D03*
Y34000D02*
D03*
D03*
Y28500D02*
D03*
X87750D02*
D03*
Y34000D02*
D03*
D03*
Y28500D02*
D03*
X38750D02*
D03*
Y34000D02*
D03*
D03*
Y28500D02*
D03*
X45999Y126500D02*
D03*
Y121000D02*
D03*
D03*
Y126500D02*
D03*
X83499D02*
D03*
Y121000D02*
D03*
D03*
Y126500D02*
D03*
X76250Y28500D02*
D03*
Y34000D02*
D03*
D03*
Y28500D02*
D03*
X113750D02*
D03*
Y34000D02*
D03*
D03*
Y28500D02*
D03*
D14*
X22998Y73507D02*
D03*
X27999D02*
D03*
X33001D02*
D03*
X38002D02*
D03*
Y88493D02*
D03*
X33001D02*
D03*
X27999D02*
D03*
X22998D02*
D03*
X28251Y58743D02*
D03*
X23249D02*
D03*
Y43757D02*
D03*
X28251D02*
D03*
X56499Y96257D02*
D03*
X61500D02*
D03*
Y111243D02*
D03*
X56499D02*
D03*
X93999Y96257D02*
D03*
X99000D02*
D03*
Y111243D02*
D03*
X93999D02*
D03*
X65751Y58743D02*
D03*
X60749D02*
D03*
Y43757D02*
D03*
X65751D02*
D03*
X103251Y58743D02*
D03*
X98249D02*
D03*
Y43757D02*
D03*
X103251D02*
D03*
D15*
X37993Y78499D02*
D03*
Y83501D02*
D03*
X23007D02*
D03*
Y78499D02*
D03*
X33243Y43748D02*
D03*
Y48749D02*
D03*
Y53751D02*
D03*
Y58752D02*
D03*
X18257D02*
D03*
Y53751D02*
D03*
Y48749D02*
D03*
Y43748D02*
D03*
X51506Y111252D02*
D03*
Y106251D02*
D03*
Y101249D02*
D03*
Y96248D02*
D03*
X66492D02*
D03*
Y101249D02*
D03*
Y106251D02*
D03*
Y111252D02*
D03*
X89006D02*
D03*
Y106251D02*
D03*
Y101249D02*
D03*
Y96248D02*
D03*
X103992D02*
D03*
Y101249D02*
D03*
Y106251D02*
D03*
Y111252D02*
D03*
X70743Y43748D02*
D03*
Y48749D02*
D03*
Y53751D02*
D03*
Y58752D02*
D03*
X55757D02*
D03*
Y53751D02*
D03*
Y48749D02*
D03*
Y43748D02*
D03*
X108243D02*
D03*
Y48749D02*
D03*
Y53751D02*
D03*
Y58752D02*
D03*
X93257D02*
D03*
Y53751D02*
D03*
Y48749D02*
D03*
Y43748D02*
D03*
D16*
X29065Y68512D02*
D03*
X34565D02*
D03*
X41000Y64459D02*
D03*
X35500D02*
D03*
X23000Y33250D02*
D03*
X17500D02*
D03*
X61749Y121750D02*
D03*
X67249D02*
D03*
X99249D02*
D03*
X104749D02*
D03*
X60500Y33250D02*
D03*
X55000D02*
D03*
X98000D02*
D03*
X92500D02*
D03*
X28500D02*
D03*
X34000D02*
D03*
X56249Y121750D02*
D03*
X50749D02*
D03*
X93749D02*
D03*
X88249D02*
D03*
X66000Y33250D02*
D03*
X71500D02*
D03*
X103500D02*
D03*
X109000D02*
D03*
X14250Y38250D02*
D03*
X19750D02*
D03*
X70499Y116750D02*
D03*
X64999D02*
D03*
X107999D02*
D03*
X102499D02*
D03*
X51750Y38250D02*
D03*
X57250D02*
D03*
X89250D02*
D03*
X94750D02*
D03*
X37250D02*
D03*
X31750D02*
D03*
X47499Y116750D02*
D03*
X52999D02*
D03*
X84999D02*
D03*
X90499D02*
D03*
X74750Y38250D02*
D03*
X69250D02*
D03*
X112250D02*
D03*
X106750D02*
D03*
X20250Y94250D02*
D03*
X25750D02*
D03*
X35000D02*
D03*
X29500D02*
D03*
X29493Y98251D02*
D03*
X34993D02*
D03*
X28500Y38250D02*
D03*
X23000D02*
D03*
X56249Y116750D02*
D03*
X61749D02*
D03*
X93749D02*
D03*
X99249D02*
D03*
X66000Y38250D02*
D03*
X60500D02*
D03*
X103500D02*
D03*
X98000D02*
D03*
X7750Y94000D02*
D03*
X13250D02*
D03*
D03*
X7750D02*
D03*
Y68000D02*
D03*
X13250D02*
D03*
D03*
X7750D02*
D03*
D17*
X6500Y90000D02*
D03*
Y83000D02*
D03*
Y79000D02*
D03*
Y72000D02*
D03*
D18*
X16750Y27250D02*
D03*
X23750D02*
D03*
X67999Y127750D02*
D03*
X60999D02*
D03*
X105499D02*
D03*
X98499D02*
D03*
X54250Y27250D02*
D03*
X61250D02*
D03*
X91750D02*
D03*
X98750D02*
D03*
X27750D02*
D03*
X34750D02*
D03*
X56999Y127750D02*
D03*
X49999D02*
D03*
X94499D02*
D03*
X87499D02*
D03*
X65250Y27250D02*
D03*
X72250D02*
D03*
X102750D02*
D03*
X109750D02*
D03*
D19*
X126000Y47000D02*
D03*
Y43000D02*
D03*
Y55000D02*
D03*
Y51000D02*
D03*
Y35000D02*
D03*
Y39000D02*
D03*
Y79000D02*
D03*
Y75000D02*
D03*
Y87000D02*
D03*
Y83000D02*
D03*
Y63000D02*
D03*
Y59000D02*
D03*
Y71000D02*
D03*
Y67000D02*
D03*
X156000Y47000D02*
D03*
Y43000D02*
D03*
Y55000D02*
D03*
Y51000D02*
D03*
Y35000D02*
D03*
Y39000D02*
D03*
Y83000D02*
D03*
Y79000D02*
D03*
Y87000D02*
D03*
Y63000D02*
D03*
Y59000D02*
D03*
Y75000D02*
D03*
Y67000D02*
D03*
Y71000D02*
D03*
X126000Y103000D02*
D03*
Y99000D02*
D03*
Y111000D02*
D03*
Y107000D02*
D03*
Y91000D02*
D03*
X156000D02*
D03*
X126000Y95000D02*
D03*
X156000D02*
D03*
Y99000D02*
D03*
X126000Y123000D02*
D03*
Y119000D02*
D03*
Y131000D02*
D03*
Y127000D02*
D03*
Y115000D02*
D03*
X156000Y127000D02*
D03*
Y131000D02*
D03*
Y115000D02*
D03*
Y111000D02*
D03*
Y123000D02*
D03*
Y119000D02*
D03*
Y107000D02*
D03*
Y103000D02*
D03*
D20*
X127000Y26000D02*
D03*
X155000D02*
D03*
X127000Y140000D02*
D03*
X155000D02*
D03*
M02*
