G04*
G04 #@! TF.GenerationSoftware,Altium Limited,Altium Designer,23.11.1 (41)*
G04*
G04 Layer_Color=16711935*
%FSLAX44Y44*%
%MOMM*%
G71*
G04*
G04 #@! TF.SameCoordinates,860607A7-82FE-4F03-8345-F0151ACF9F54*
G04*
G04*
G04 #@! TF.FilePolarity,Positive*
G04*
G01*
G75*
%ADD10C,0.1000*%
%ADD21C,0.2000*%
%ADD86C,0.2540*%
%ADD87C,0.1524*%
D10*
X0Y12700D02*
G03*
X12700Y0I12700J0D01*
G01*
X182300D02*
G03*
X195000Y12700I0J12700D01*
G01*
Y152300D02*
G03*
X182300Y165000I-12700J0D01*
G01*
X10000D02*
G03*
X0Y155000I0J-10000D01*
G01*
X12700Y0D02*
X182300D01*
X195000Y12700D02*
Y152300D01*
X10000Y165000D02*
X182300D01*
X0Y12700D02*
Y155000D01*
D21*
X255000Y0D02*
Y41363D01*
Y115509D02*
Y165000D01*
Y0D02*
X260080Y15240D01*
X249920D02*
X255000Y0D01*
X249920Y149760D02*
X255000Y165000D01*
X260080Y149760D01*
X130509Y195000D02*
X195000D01*
X0D02*
X56363D01*
X179760Y200080D02*
X195000Y195000D01*
X179760Y189920D02*
X195000Y195000D01*
X0D02*
X15240Y189920D01*
X0Y195000D02*
X15240Y200080D01*
D86*
X192800Y0D02*
X257540D01*
X192800Y165000D02*
X257540D01*
X195000Y162800D02*
Y200000D01*
X0Y165500D02*
Y200000D01*
D87*
X264142Y45427D02*
Y50505D01*
Y47966D01*
X248906D01*
X251446Y45427D01*
X248906Y68279D02*
X251446Y63201D01*
X256524Y58123D01*
X261602D01*
X264142Y60662D01*
Y65740D01*
X261602Y68279D01*
X259063D01*
X256524Y65740D01*
Y58123D01*
X264142Y73358D02*
X261602D01*
Y75897D01*
X264142D01*
Y73358D01*
X248906Y96210D02*
Y86053D01*
X256524D01*
X253985Y91132D01*
Y93671D01*
X256524Y96210D01*
X261602D01*
X264142Y93671D01*
Y88593D01*
X261602Y86053D01*
X251446Y101289D02*
X248906Y103828D01*
Y108906D01*
X251446Y111445D01*
X261602D01*
X264142Y108906D01*
Y103828D01*
X261602Y101289D01*
X251446D01*
X60427Y185858D02*
X65505D01*
X62966D01*
Y201094D01*
X60427Y198554D01*
X73123Y188398D02*
X75662Y185858D01*
X80740D01*
X83279Y188398D01*
Y198554D01*
X80740Y201094D01*
X75662D01*
X73123Y198554D01*
Y196015D01*
X75662Y193476D01*
X83279D01*
X88358Y185858D02*
Y188398D01*
X90897D01*
Y185858D01*
X88358D01*
X111210Y201094D02*
X101053D01*
Y193476D01*
X106132Y196015D01*
X108671D01*
X111210Y193476D01*
Y188398D01*
X108671Y185858D01*
X103593D01*
X101053Y188398D01*
X116289Y198554D02*
X118828Y201094D01*
X123906D01*
X126445Y198554D01*
Y188398D01*
X123906Y185858D01*
X118828D01*
X116289Y188398D01*
Y198554D01*
M02*
