G04*
G04 #@! TF.GenerationSoftware,Altium Limited,Altium Designer,25.0.2 (28)*
G04*
G04 Layer_Physical_Order=3*
G04 Layer_Color=16440176*
%FSLAX44Y44*%
%MOMM*%
G71*
G04*
G04 #@! TF.SameCoordinates,86524C76-892E-4E36-895C-82D9F112F233*
G04*
G04*
G04 #@! TF.FilePolarity,Positive*
G04*
G01*
G75*
%ADD63C,1.1430*%
G04:AMPARAMS|DCode=64|XSize=1.143mm|YSize=1.143mm|CornerRadius=0.2858mm|HoleSize=0mm|Usage=FLASHONLY|Rotation=270.000|XOffset=0mm|YOffset=0mm|HoleType=Round|Shape=RoundedRectangle|*
%AMROUNDEDRECTD64*
21,1,1.1430,0.5715,0,0,270.0*
21,1,0.5715,1.1430,0,0,270.0*
1,1,0.5715,-0.2858,-0.2858*
1,1,0.5715,-0.2858,0.2858*
1,1,0.5715,0.2858,0.2858*
1,1,0.5715,0.2858,-0.2858*
%
%ADD64ROUNDEDRECTD64*%
G04:AMPARAMS|DCode=66|XSize=1.143mm|YSize=1.143mm|CornerRadius=0.2858mm|HoleSize=0mm|Usage=FLASHONLY|Rotation=180.000|XOffset=0mm|YOffset=0mm|HoleType=Round|Shape=RoundedRectangle|*
%AMROUNDEDRECTD66*
21,1,1.1430,0.5715,0,0,180.0*
21,1,0.5715,1.1430,0,0,180.0*
1,1,0.5715,-0.2858,0.2858*
1,1,0.5715,0.2858,0.2858*
1,1,0.5715,0.2858,-0.2858*
1,1,0.5715,-0.2858,-0.2858*
%
%ADD66ROUNDEDRECTD66*%
%ADD67R,1.1430X1.1430*%
%ADD69C,0.1500*%
%ADD73C,0.4000*%
%ADD74C,0.4000*%
G36*
X185410Y162551D02*
X187350Y161748D01*
X189096Y160581D01*
X190581Y159096D01*
X191748Y157350D01*
X192309Y155996D01*
X190228Y151201D01*
X187961Y150289D01*
X187547Y150400D01*
X185954D01*
X184415Y149987D01*
X183036Y149191D01*
X181909Y148064D01*
X181112Y146685D01*
X180700Y145146D01*
Y143553D01*
X181112Y142015D01*
X181113Y142015D01*
X181712Y140126D01*
X180751Y137649D01*
X179788Y136207D01*
X179450Y134507D01*
Y133150D01*
X186750D01*
Y130150D01*
X179450D01*
Y128792D01*
X179788Y127092D01*
X180751Y125651D01*
X181712Y123173D01*
X181113Y121285D01*
X181112Y121285D01*
X180924Y120579D01*
X180700Y119746D01*
Y118153D01*
X181112Y116615D01*
X181113Y116615D01*
X181712Y114726D01*
X180751Y112249D01*
X179788Y110807D01*
X179450Y109107D01*
Y107750D01*
X186750D01*
Y104750D01*
X179450D01*
Y103392D01*
X179788Y101692D01*
X180751Y100251D01*
X181712Y97773D01*
X181113Y95885D01*
X181112Y95885D01*
X180924Y95179D01*
X180700Y94346D01*
Y92753D01*
X181112Y91215D01*
X181728Y90149D01*
X182008Y89194D01*
X182315Y87200D01*
X182008Y85205D01*
X181728Y84250D01*
X181112Y83185D01*
X180700Y81646D01*
Y80053D01*
X181112Y78514D01*
X181728Y77449D01*
X182008Y76494D01*
X182315Y74500D01*
X182008Y72505D01*
X181728Y71550D01*
X181112Y70485D01*
X180700Y68946D01*
Y67353D01*
X181112Y65814D01*
X181728Y64749D01*
X182008Y63794D01*
X182315Y61800D01*
X182008Y59805D01*
X181728Y58850D01*
X181112Y57785D01*
X180700Y56246D01*
Y54653D01*
X181112Y53115D01*
X181113Y53115D01*
X181712Y51226D01*
X180751Y48749D01*
X179788Y47307D01*
X179450Y45607D01*
Y44250D01*
X186750D01*
Y41250D01*
X179450D01*
Y39892D01*
X179788Y38192D01*
X180751Y36751D01*
X181712Y34273D01*
X181113Y32385D01*
X181112Y32385D01*
X180924Y31679D01*
X180700Y30846D01*
Y29253D01*
X181112Y27715D01*
X181909Y26335D01*
X183036Y25208D01*
X184415Y24412D01*
X185954Y24000D01*
X187547D01*
X187961Y24111D01*
X191255Y22432D01*
X192961Y20876D01*
Y11650D01*
X192551Y9590D01*
X191747Y7650D01*
X190581Y5904D01*
X189096Y4419D01*
X187350Y3252D01*
X185410Y2449D01*
X183350Y2039D01*
X170750D01*
X170591Y2166D01*
X168830Y4834D01*
X167955Y7039D01*
X168200Y7954D01*
Y9547D01*
X167788Y11085D01*
X166991Y12465D01*
X165865Y13591D01*
X164485Y14388D01*
X162946Y14800D01*
X161353D01*
X159815Y14388D01*
X158749Y13773D01*
X157794Y13492D01*
X155800Y13185D01*
X153806Y13492D01*
X152851Y13773D01*
X151785Y14388D01*
X150246Y14800D01*
X148653D01*
X147115Y14388D01*
X146049Y13773D01*
X145094Y13492D01*
X143100Y13185D01*
X141105Y13492D01*
X140150Y13773D01*
X139085Y14388D01*
X137546Y14800D01*
X135953D01*
X131265Y15965D01*
X131265Y15965D01*
X128026D01*
X123500Y18105D01*
Y19895D01*
X122815Y21549D01*
X121549Y22815D01*
X119895Y23500D01*
X118105D01*
X117880Y23407D01*
X117069Y23568D01*
X111992D01*
X111500Y24304D01*
X111500Y25696D01*
X111500Y25696D01*
X110967Y26983D01*
X109983Y27967D01*
X109983Y27967D01*
X109982Y27967D01*
X108696Y28500D01*
X108696Y28500D01*
X107304D01*
X107304Y28500D01*
X106018Y27967D01*
X106017Y27967D01*
Y27967D01*
X105033Y26983D01*
X105031Y26979D01*
X102296Y25812D01*
X100371Y26569D01*
X97309Y28159D01*
X96967Y28983D01*
X95983Y29967D01*
X94696Y30500D01*
X93304D01*
X92017Y29967D01*
X91033Y28983D01*
X90500Y27696D01*
Y26304D01*
X88291Y23316D01*
X87216Y22597D01*
X85571D01*
X84496Y23316D01*
X83228Y23568D01*
X77050D01*
X73500Y27304D01*
X73500Y28696D01*
X72967Y29983D01*
X71983Y30967D01*
X70696Y31500D01*
X69304D01*
X68017Y30967D01*
X67033Y29983D01*
X66500Y28696D01*
X66500Y27304D01*
X65500Y26252D01*
X60500D01*
X59500Y27304D01*
X59500Y28696D01*
X58967Y29983D01*
X57983Y30967D01*
X56696Y31500D01*
X55304D01*
X54017Y30967D01*
X53033Y29983D01*
X52500Y28696D01*
X52500Y27304D01*
X48950Y23568D01*
X48074D01*
X46806Y23316D01*
X45731Y22597D01*
X44114Y20980D01*
X43338D01*
X42975Y21343D01*
X41900Y22061D01*
X40632Y22314D01*
X38500D01*
Y23696D01*
X37967Y24983D01*
X36983Y25967D01*
X35696Y26500D01*
X34304D01*
X33017Y25967D01*
X32033Y24983D01*
X27404Y26228D01*
X27187Y26348D01*
X26492Y26813D01*
X24122Y29182D01*
X23879Y29546D01*
X17082Y36343D01*
X16007Y37061D01*
X14739Y37314D01*
X14062D01*
X12963Y38434D01*
X11093Y42169D01*
X11093Y42314D01*
Y43562D01*
X10747Y44398D01*
X10440Y46216D01*
X10240Y48485D01*
X10500Y50304D01*
X10500Y50862D01*
Y51696D01*
X9967Y52983D01*
X8983Y53967D01*
X7696Y54500D01*
X6304Y54500D01*
X2420Y57252D01*
X2175Y57561D01*
X2675Y62669D01*
X3436Y63177D01*
X5226D01*
X6880Y63862D01*
X8146Y65128D01*
X8831Y66782D01*
Y67414D01*
X8854Y67514D01*
X12685Y71345D01*
X13404Y72420D01*
X13656Y73688D01*
Y88015D01*
X13404Y89283D01*
X12685Y90358D01*
X11544Y91500D01*
X12131Y94049D01*
X12296Y94418D01*
X16185Y97101D01*
X20133Y96189D01*
X20133D01*
X21419Y95657D01*
X21420Y95657D01*
X22812D01*
X24098Y96189D01*
X24098D01*
X25083Y97174D01*
X25083Y97174D01*
X26554Y96750D01*
X27946D01*
X29233Y97283D01*
X29233Y97283D01*
X30217Y98267D01*
Y98267D01*
X30750Y99554D01*
X30750Y100946D01*
X30750Y100946D01*
X30217Y102233D01*
X30217Y102233D01*
X29233Y103217D01*
X27946Y103750D01*
X27946Y103750D01*
X27946Y103750D01*
X26554Y103750D01*
X26554Y103750D01*
X25267Y103217D01*
X24283Y102233D01*
X24283Y102233D01*
X22812Y102657D01*
X21419Y102657D01*
X20057Y102422D01*
X17931Y102056D01*
X17931Y102056D01*
X17931D01*
X16279Y102015D01*
X14344Y102606D01*
X13983Y102967D01*
X11103Y105234D01*
X10876Y107204D01*
X10876Y107204D01*
X10191Y108858D01*
X8925Y110124D01*
X7271Y110809D01*
X5481D01*
X2039Y114795D01*
Y115094D01*
X2390Y119949D01*
X12228D01*
Y123920D01*
X13475D01*
Y133952D01*
X12228D01*
Y141949D01*
X2390D01*
X2039Y146804D01*
Y146941D01*
X2500Y151750D01*
X7676D01*
X7915Y151612D01*
X9453Y151200D01*
X11047D01*
X12585Y151612D01*
X12700Y151649D01*
X13019Y151750D01*
X15988D01*
X18392Y150288D01*
X20092Y149950D01*
X21450D01*
Y157250D01*
X24450D01*
Y149950D01*
X25807D01*
X27508Y150288D01*
X30000Y151692D01*
X33063D01*
X33315Y151612D01*
X34853Y151200D01*
X36446D01*
X37985Y151612D01*
X38124Y151692D01*
X45876D01*
X46015Y151612D01*
X47554Y151200D01*
X49146D01*
X50685Y151612D01*
X50937Y151692D01*
X53930D01*
X56492Y150288D01*
X58193Y149950D01*
X59550D01*
Y157250D01*
X62550D01*
Y149950D01*
X63907D01*
X65608Y150288D01*
X68000Y151692D01*
X71276D01*
X71415Y151612D01*
X72954Y151200D01*
X74546D01*
X76085Y151612D01*
X76224Y151692D01*
X83976D01*
X84115Y151612D01*
X85653Y151200D01*
X87247D01*
X88785Y151612D01*
X89037Y151692D01*
X91930D01*
X94592Y150288D01*
X96292Y149950D01*
X97650D01*
Y157250D01*
X100650D01*
Y149950D01*
X102008D01*
X103708Y150288D01*
X105149Y151251D01*
X105424Y151662D01*
X109429D01*
X109515Y151612D01*
X111053Y151200D01*
X112647D01*
X117335Y150035D01*
Y150035D01*
X123050D01*
Y157250D01*
X126050D01*
Y150035D01*
X127063D01*
X129135Y145035D01*
X127407Y143307D01*
X126689Y142232D01*
X126436Y140964D01*
Y124995D01*
X126689Y123727D01*
X127407Y122652D01*
X134686Y115372D01*
Y101162D01*
X134257Y100875D01*
X132458Y100500D01*
X132304D01*
X132148Y100436D01*
X129750Y99936D01*
X124093Y105593D01*
X123018Y106311D01*
X121828Y106897D01*
X120623Y110274D01*
X120148Y112267D01*
Y112268D01*
X120680Y113554D01*
Y114946D01*
X120681Y114946D01*
X120680Y114946D01*
X120148Y116233D01*
Y116233D01*
X120147Y116233D01*
X119163Y117217D01*
X119163D01*
X117877Y117750D01*
X117877Y117750D01*
X116484Y117750D01*
X116484Y117750D01*
X115198Y117217D01*
X115198Y117217D01*
X114213Y116233D01*
X113680Y114946D01*
X113680Y114946D01*
X113680Y114946D01*
X113680Y113554D01*
X114227Y111265D01*
X111306Y106564D01*
X108010D01*
X106742Y106311D01*
X105667Y105593D01*
X97516Y97443D01*
X87563D01*
Y108918D01*
X87617Y109004D01*
X88064Y109451D01*
X88749Y111105D01*
Y112895D01*
X88064Y114549D01*
X86798Y115815D01*
X85145Y116500D01*
X83354D01*
X81700Y115815D01*
X81700Y115815D01*
X80435Y114549D01*
X78983Y114967D01*
X77696Y115500D01*
X76304Y115500D01*
X76304Y115500D01*
X75017Y114967D01*
X75017Y114967D01*
X74033Y113983D01*
X73500Y112696D01*
X73500Y112696D01*
Y111304D01*
X74033Y110017D01*
X75017Y109033D01*
X75017Y109033D01*
X75229Y108945D01*
X75500Y108290D01*
X75500Y108290D01*
Y106898D01*
X76033Y105611D01*
X77017Y104627D01*
X77017Y104627D01*
X78304Y104094D01*
X79696D01*
X80936Y103266D01*
Y97443D01*
X54243D01*
X43523Y108163D01*
X43500Y108263D01*
Y108895D01*
X42815Y110549D01*
X41549Y111815D01*
X39895Y112500D01*
X38966D01*
X36283Y114920D01*
X35000Y116626D01*
Y117922D01*
X34523Y119702D01*
X34433Y119858D01*
X32721Y123500D01*
X34433Y127142D01*
X34523Y127298D01*
X35000Y129079D01*
Y130922D01*
X34523Y132702D01*
X33601Y134298D01*
X32298Y135601D01*
X30702Y136523D01*
X28922Y137000D01*
X27078D01*
X25298Y136523D01*
X23702Y135601D01*
X22399Y134298D01*
X21477Y132702D01*
X21000Y130922D01*
Y129079D01*
X21477Y127298D01*
X21567Y127142D01*
X23279Y123500D01*
X21567Y119858D01*
X21477Y119702D01*
X21000Y117922D01*
Y116079D01*
X21477Y114298D01*
X22399Y112702D01*
X23702Y111399D01*
X25298Y110477D01*
X27078Y110000D01*
X28922D01*
X29881Y110257D01*
X30443Y110091D01*
X32757Y108652D01*
X34461Y107139D01*
X34570Y106937D01*
X35185Y105451D01*
X36451Y104185D01*
X38105Y103500D01*
X38737D01*
X38837Y103477D01*
X44346Y97968D01*
X42154Y93089D01*
X41530Y92977D01*
X40138Y92977D01*
X40138Y92977D01*
X39727Y92807D01*
X38851Y92444D01*
X37867Y91460D01*
X37867Y91460D01*
Y91460D01*
X37334Y90173D01*
X37334Y90173D01*
X37334Y88781D01*
X37867Y87494D01*
Y87494D01*
X38851Y86510D01*
X38851D01*
X40138Y85977D01*
X41530Y85977D01*
X41530Y85977D01*
X42816Y86510D01*
X42816D01*
X42816Y86510D01*
X43801Y87494D01*
X44334Y88781D01*
X44334Y88781D01*
X44334Y90173D01*
X44446Y90797D01*
X49324Y92989D01*
X50528Y91786D01*
X51603Y91068D01*
X52871Y90815D01*
X61885D01*
X62500Y89895D01*
Y88105D01*
X63185Y86451D01*
X64451Y85185D01*
X64467Y84832D01*
X59775Y79835D01*
X48771D01*
X47503Y79582D01*
X46428Y78864D01*
X39627Y72064D01*
X27300D01*
X26549Y72815D01*
X24895Y73500D01*
X23105D01*
X21451Y72815D01*
X20185Y71549D01*
X19500Y69895D01*
Y68105D01*
X20185Y66451D01*
X21451Y65185D01*
X23105Y64500D01*
X24895D01*
X25527Y64762D01*
X27641Y64142D01*
X30705Y62808D01*
X31033Y62017D01*
X32017Y61033D01*
X32017Y61033D01*
X33304Y60500D01*
X34696D01*
X37686Y56327D01*
Y54082D01*
X37632Y53996D01*
X37185Y53549D01*
X36500Y51895D01*
Y50105D01*
X37185Y48451D01*
X38077Y47559D01*
X38575Y46956D01*
X39593Y45084D01*
X40410Y42933D01*
X40500Y41881D01*
Y41304D01*
X41033Y40017D01*
X42017Y39033D01*
X43304Y38500D01*
X44696D01*
X45983Y39033D01*
X46967Y40017D01*
X47500Y41304D01*
Y42583D01*
X47500Y42696D01*
X47550Y44507D01*
X47737Y45920D01*
X48575Y48031D01*
X48771Y48524D01*
X48941Y48742D01*
X48967Y48767D01*
Y48767D01*
X49500Y50054D01*
X49500Y50054D01*
Y51446D01*
X48967Y52732D01*
X48967Y52733D01*
X48967Y52733D01*
X47983Y53717D01*
X47983Y53717D01*
X46696Y54250D01*
X46696Y54250D01*
X45304Y54250D01*
X45304Y54250D01*
X44314Y58869D01*
Y60146D01*
X48610Y61297D01*
X49314Y61322D01*
X50451Y60185D01*
X52105Y59500D01*
X52737D01*
X52836Y59477D01*
X56907Y55407D01*
X57982Y54689D01*
X59250Y54436D01*
X65469D01*
X65652Y54254D01*
X66727Y53535D01*
X67995Y53283D01*
X73733D01*
X74137Y53364D01*
X77088Y50974D01*
X78173Y49642D01*
X78190Y47390D01*
X78033Y47233D01*
X77500Y45946D01*
Y44554D01*
X77995Y43359D01*
X77185Y42549D01*
X76500Y40895D01*
Y39105D01*
X77185Y37451D01*
X78451Y36185D01*
X80105Y35500D01*
X81895D01*
X83549Y36185D01*
X84815Y37451D01*
X85406Y38878D01*
X85410Y38886D01*
X85411Y38890D01*
X85500Y39105D01*
Y39126D01*
X85506Y39135D01*
X85510Y39141D01*
X85535Y39172D01*
X86494Y40132D01*
X107881D01*
X112500Y39395D01*
Y37605D01*
X113185Y35951D01*
X114451Y34685D01*
X116105Y34000D01*
X117895D01*
X119549Y34685D01*
X119996Y35132D01*
X120083Y35186D01*
X146510D01*
X147779Y35439D01*
X148854Y36157D01*
X151593Y38897D01*
X152311Y39971D01*
X152564Y41240D01*
Y50170D01*
X152617Y50242D01*
X152627Y50263D01*
X152815Y50451D01*
X153500Y52105D01*
Y53895D01*
X152815Y55549D01*
X151549Y56815D01*
X149895Y57500D01*
X148105D01*
X146451Y56815D01*
X145185Y55549D01*
X143895Y52500D01*
X142105D01*
X140451Y51815D01*
X140004Y51368D01*
X139917Y51314D01*
X134437D01*
X129287Y56464D01*
X129179Y56610D01*
X129229Y62910D01*
X129549Y63273D01*
X137363D01*
X138451Y62185D01*
X140105Y61500D01*
X141895D01*
X143549Y62185D01*
X144815Y63451D01*
X145500Y65105D01*
Y65686D01*
X162917D01*
X163004Y65632D01*
X163451Y65185D01*
X165105Y64500D01*
X166895D01*
X168549Y65185D01*
X169815Y66451D01*
X170500Y68105D01*
Y69895D01*
X169815Y71549D01*
X168549Y72815D01*
X167197Y73375D01*
X167500Y74105D01*
Y75895D01*
X166815Y77549D01*
X165962Y80000D01*
X166815Y82451D01*
X167500Y84105D01*
Y85895D01*
X167186Y86654D01*
X168483Y87191D01*
X169749Y88457D01*
X170434Y90111D01*
Y91901D01*
X169749Y93555D01*
X168483Y94821D01*
X166829Y95506D01*
X165039D01*
X163385Y94821D01*
X162938Y94374D01*
X162852Y94320D01*
X162660D01*
X158414Y98350D01*
X158442Y99395D01*
X162304Y102500D01*
X162304Y102500D01*
X163696D01*
X164982Y103033D01*
X164983Y103033D01*
X169304Y103500D01*
X169837Y103500D01*
X170696D01*
X171982Y104033D01*
X171983Y104033D01*
X171983Y104033D01*
X172967Y105017D01*
X172967Y105017D01*
X173500Y106304D01*
X173500Y107696D01*
X173500Y107696D01*
X172967Y109303D01*
Y112697D01*
X173500Y114304D01*
X173500Y114751D01*
Y115696D01*
X172967Y116983D01*
X171983Y117967D01*
X170696Y118500D01*
X169304D01*
X168017Y117967D01*
X167033Y116983D01*
X166500Y115696D01*
X166500Y114304D01*
X166742Y113575D01*
X165581Y111577D01*
X163490Y109500D01*
X163163Y109500D01*
X162304D01*
X161564Y109193D01*
X159043Y110127D01*
X156564Y111585D01*
Y124595D01*
X156311Y125863D01*
X155593Y126938D01*
X153264Y129267D01*
Y148784D01*
X157264Y152090D01*
X160315Y151612D01*
X161854Y151200D01*
X163447D01*
X164985Y151612D01*
X166365Y152409D01*
X167491Y153535D01*
X168288Y154915D01*
X168700Y156454D01*
Y158046D01*
X170912Y161902D01*
X172112Y162961D01*
X183350D01*
X185410Y162551D01*
D02*
G37*
G36*
X140294Y152344D02*
X139388Y151450D01*
X139020Y151010D01*
X138708Y150575D01*
X138453Y150143D01*
X138255Y149717D01*
X138113Y149295D01*
X138028Y148877D01*
X138000Y148464D01*
X136500D01*
X136472Y148877D01*
X136387Y149295D01*
X136245Y149717D01*
X136047Y150143D01*
X135792Y150575D01*
X135480Y151010D01*
X135112Y151450D01*
X134687Y151895D01*
X134206Y152344D01*
X133668Y152797D01*
X140833D01*
X140294Y152344D01*
D02*
G37*
G36*
X146636Y145532D02*
Y127895D01*
X146889Y126627D01*
X146883Y126600D01*
X142541Y124409D01*
X141983Y124967D01*
X140696Y125500D01*
X138181Y127181D01*
X136500Y129696D01*
X135967Y130983D01*
X134983Y131967D01*
X133696Y132500D01*
X133064D01*
Y139592D01*
X139593Y146121D01*
X140311Y147196D01*
X141455Y147893D01*
X142548Y148319D01*
X146636Y145532D01*
D02*
G37*
G36*
X85526Y110441D02*
X85415Y110303D01*
X85318Y110158D01*
X85233Y110006D01*
X85162Y109847D01*
X85103Y109681D01*
X85058Y109508D01*
X85025Y109327D01*
X85006Y109140D01*
X84999Y108946D01*
X83499D01*
X83493Y109140D01*
X83473Y109327D01*
X83441Y109508D01*
X83395Y109681D01*
X83337Y109847D01*
X83265Y110006D01*
X83181Y110158D01*
X83083Y110303D01*
X82973Y110441D01*
X82849Y110572D01*
X85649D01*
X85526Y110441D01*
D02*
G37*
G36*
X41005Y107800D02*
X41025Y107624D01*
X41058Y107453D01*
X41106Y107286D01*
X41168Y107123D01*
X41244Y106964D01*
X41334Y106809D01*
X41439Y106659D01*
X41557Y106513D01*
X41690Y106371D01*
X40629Y105310D01*
X40487Y105443D01*
X40341Y105562D01*
X40191Y105666D01*
X40036Y105756D01*
X39877Y105832D01*
X39714Y105894D01*
X39547Y105942D01*
X39376Y105975D01*
X39200Y105995D01*
X39020Y106000D01*
X41000Y107980D01*
X41005Y107800D01*
D02*
G37*
G36*
X7652Y104750D02*
X7542Y104612D01*
X7444Y104467D01*
X7360Y104315D01*
X7288Y104156D01*
X7230Y103989D01*
X7184Y103816D01*
X7152Y103636D01*
X7132Y103449D01*
X7126Y103255D01*
X5626D01*
X5619Y103449D01*
X5600Y103636D01*
X5567Y103816D01*
X5522Y103989D01*
X5463Y104156D01*
X5392Y104315D01*
X5307Y104467D01*
X5210Y104612D01*
X5099Y104750D01*
X4976Y104881D01*
X7776D01*
X7652Y104750D01*
D02*
G37*
G36*
X138757Y96860D02*
X138776Y96673D01*
X138808Y96493D01*
X138854Y96319D01*
X138912Y96153D01*
X138984Y95994D01*
X139068Y95842D01*
X139166Y95697D01*
X139277Y95559D01*
X139400Y95428D01*
X136600D01*
X136723Y95559D01*
X136834Y95697D01*
X136931Y95842D01*
X137016Y95994D01*
X137087Y96153D01*
X137146Y96319D01*
X137191Y96493D01*
X137224Y96673D01*
X137243Y96860D01*
X137250Y97054D01*
X138750D01*
X138757Y96860D01*
D02*
G37*
G36*
X151690Y94629D02*
X151557Y94487D01*
X151439Y94341D01*
X151334Y94191D01*
X151244Y94036D01*
X151168Y93877D01*
X151106Y93714D01*
X151058Y93547D01*
X151025Y93376D01*
X151005Y93200D01*
X151000Y93020D01*
X149020Y95000D01*
X149200Y95005D01*
X149376Y95025D01*
X149547Y95058D01*
X149714Y95106D01*
X149877Y95168D01*
X150036Y95244D01*
X150191Y95334D01*
X150341Y95438D01*
X150487Y95557D01*
X150629Y95690D01*
X151690Y94629D01*
D02*
G37*
G36*
X131513Y94557D02*
X131659Y94438D01*
X131809Y94334D01*
X131964Y94244D01*
X132123Y94168D01*
X132286Y94106D01*
X132453Y94058D01*
X132624Y94025D01*
X132800Y94005D01*
X132980Y94000D01*
X131000Y92020D01*
X130995Y92200D01*
X130975Y92376D01*
X130942Y92547D01*
X130894Y92714D01*
X130832Y92877D01*
X130756Y93036D01*
X130666Y93191D01*
X130561Y93341D01*
X130443Y93487D01*
X130310Y93629D01*
X131371Y94690D01*
X131513Y94557D01*
D02*
G37*
G36*
X85014Y96094D02*
X85059Y95839D01*
X85134Y95614D01*
X85239Y95419D01*
X85374Y95254D01*
X85539Y95119D01*
X85734Y95014D01*
X85959Y94939D01*
X86214Y94894D01*
X86499Y94879D01*
Y93379D01*
X86214Y93364D01*
X85959Y93319D01*
X85734Y93244D01*
X85539Y93139D01*
X85374Y93004D01*
X85239Y92839D01*
X85134Y92644D01*
X85059Y92419D01*
X85051Y92370D01*
X85090Y92195D01*
X85141Y92023D01*
X85204Y91857D01*
X85278Y91695D01*
X85363Y91539D01*
X85459Y91388D01*
X85567Y91243D01*
X82789Y91592D01*
X82924Y91704D01*
X83045Y91826D01*
X83151Y91958D01*
X83244Y92098D01*
X83322Y92248D01*
X83386Y92407D01*
X83413Y92499D01*
X83364Y92644D01*
X83259Y92839D01*
X83124Y93004D01*
X82959Y93139D01*
X82764Y93244D01*
X82539Y93319D01*
X82284Y93364D01*
X81999Y93379D01*
Y94879D01*
X82284Y94894D01*
X82539Y94939D01*
X82764Y95014D01*
X82959Y95119D01*
X83124Y95254D01*
X83259Y95419D01*
X83364Y95614D01*
X83439Y95839D01*
X83484Y96094D01*
X83499Y96379D01*
X84999D01*
X85014Y96094D01*
D02*
G37*
G36*
X164506Y89606D02*
X164375Y89730D01*
X164237Y89840D01*
X164092Y89938D01*
X163940Y90022D01*
X163781Y90094D01*
X163615Y90152D01*
X163442Y90198D01*
X163261Y90230D01*
X163074Y90250D01*
X162880Y90256D01*
Y91756D01*
X163074Y91763D01*
X163261Y91782D01*
X163442Y91815D01*
X163615Y91860D01*
X163781Y91919D01*
X163940Y91990D01*
X164092Y92075D01*
X164237Y92172D01*
X164375Y92283D01*
X164506Y92406D01*
Y89606D01*
D02*
G37*
G36*
X69005Y88800D02*
X69025Y88624D01*
X69058Y88453D01*
X69106Y88286D01*
X69168Y88123D01*
X69244Y87964D01*
X69334Y87809D01*
X69439Y87659D01*
X69557Y87513D01*
X69690Y87371D01*
X68629Y86310D01*
X68487Y86443D01*
X68341Y86561D01*
X68191Y86666D01*
X68036Y86756D01*
X67877Y86832D01*
X67714Y86894D01*
X67547Y86942D01*
X67376Y86975D01*
X67200Y86995D01*
X67020Y87000D01*
X69000Y88980D01*
X69005Y88800D01*
D02*
G37*
G36*
X101690Y86629D02*
X101557Y86487D01*
X101439Y86341D01*
X101334Y86191D01*
X101244Y86036D01*
X101168Y85877D01*
X101106Y85714D01*
X101058Y85547D01*
X101025Y85376D01*
X101005Y85200D01*
X101000Y85020D01*
X99020Y87000D01*
X99200Y87005D01*
X99376Y87025D01*
X99547Y87058D01*
X99714Y87106D01*
X99877Y87168D01*
X100036Y87244D01*
X100191Y87334D01*
X100341Y87439D01*
X100487Y87557D01*
X100629Y87690D01*
X101690Y86629D01*
D02*
G37*
G36*
X161758Y83432D02*
X161609Y83540D01*
X161451Y83637D01*
X161282Y83722D01*
X161103Y83796D01*
X160914Y83858D01*
X160715Y83909D01*
X160505Y83949D01*
X160286Y83977D01*
X160056Y83994D01*
X159816Y84000D01*
X159864Y85500D01*
X160060Y85507D01*
X160247Y85528D01*
X160424Y85564D01*
X160593Y85614D01*
X160752Y85678D01*
X160902Y85756D01*
X161042Y85848D01*
X161173Y85955D01*
X161295Y86075D01*
X161408Y86210D01*
X161758Y83432D01*
D02*
G37*
G36*
X90559Y83277D02*
X90697Y83166D01*
X90842Y83069D01*
X90994Y82984D01*
X91153Y82913D01*
X91319Y82854D01*
X91493Y82809D01*
X91673Y82776D01*
X91860Y82757D01*
X92054Y82750D01*
Y81250D01*
X91860Y81243D01*
X91673Y81224D01*
X91493Y81192D01*
X91319Y81146D01*
X91153Y81088D01*
X90994Y81016D01*
X90842Y80932D01*
X90697Y80834D01*
X90559Y80723D01*
X90428Y80600D01*
Y83400D01*
X90559Y83277D01*
D02*
G37*
G36*
X75210Y79862D02*
X75113Y79711D01*
X75028Y79555D01*
X74954Y79394D01*
X74892Y79227D01*
X74891Y79224D01*
X74990Y79040D01*
X75125Y78875D01*
X75290Y78740D01*
X75485Y78635D01*
X75710Y78560D01*
X75965Y78515D01*
X76250Y78500D01*
X75811Y77000D01*
X75516Y76990D01*
X75230Y76960D01*
X74955Y76909D01*
X74689Y76838D01*
X74433Y76748D01*
X74187Y76637D01*
X73951Y76505D01*
X73725Y76354D01*
X73508Y76182D01*
X73301Y75991D01*
X72241Y77051D01*
X72432Y77258D01*
X72604Y77475D01*
X72755Y77701D01*
X72887Y77937D01*
X72998Y78183D01*
X73088Y78439D01*
X73159Y78705D01*
X73166Y78742D01*
X73136Y78843D01*
X73072Y79002D01*
X72994Y79152D01*
X72902Y79292D01*
X72795Y79423D01*
X72674Y79545D01*
X72540Y79658D01*
X74369Y79888D01*
X74750Y80000D01*
X74753Y79937D01*
X75318Y80008D01*
X75210Y79862D01*
D02*
G37*
G36*
X143835Y76374D02*
X143685Y76475D01*
X143530Y76565D01*
X143371Y76645D01*
X143207Y76714D01*
X143038Y76772D01*
X142865Y76820D01*
X142687Y76857D01*
X142505Y76883D01*
X142318Y76899D01*
X142127Y76904D01*
X141841Y78404D01*
X142038Y78412D01*
X142225Y78433D01*
X142402Y78470D01*
X142568Y78521D01*
X142724Y78586D01*
X142870Y78666D01*
X143006Y78761D01*
X143131Y78870D01*
X143246Y78994D01*
X143351Y79132D01*
X143835Y76374D01*
D02*
G37*
G36*
X161572Y73600D02*
X161441Y73724D01*
X161303Y73834D01*
X161158Y73931D01*
X161006Y74016D01*
X160847Y74088D01*
X160681Y74146D01*
X160508Y74191D01*
X160327Y74224D01*
X160140Y74243D01*
X159946Y74250D01*
Y75750D01*
X160140Y75757D01*
X160327Y75776D01*
X160508Y75809D01*
X160681Y75854D01*
X160847Y75912D01*
X161006Y75984D01*
X161158Y76069D01*
X161303Y76166D01*
X161441Y76276D01*
X161572Y76400D01*
Y73600D01*
D02*
G37*
G36*
X54833Y70096D02*
X54702Y69958D01*
X54468Y69670D01*
X54365Y69521D01*
X54271Y69367D01*
X54187Y69210D01*
X54113Y69048D01*
X54048Y68883D01*
X53993Y68714D01*
X53947Y68541D01*
X52498Y70937D01*
X52664Y70903D01*
X52829Y70888D01*
X52991Y70892D01*
X53150Y70914D01*
X53307Y70955D01*
X53462Y71015D01*
X53615Y71094D01*
X53765Y71191D01*
X53912Y71307D01*
X54057Y71442D01*
X54833Y70096D01*
D02*
G37*
G36*
X77595Y70557D02*
X77741Y70439D01*
X77891Y70334D01*
X78046Y70244D01*
X78205Y70168D01*
X78368Y70106D01*
X78535Y70058D01*
X78706Y70025D01*
X78882Y70005D01*
X79062Y70000D01*
X77082Y68020D01*
X77077Y68200D01*
X77058Y68376D01*
X77024Y68547D01*
X76976Y68714D01*
X76914Y68877D01*
X76838Y69036D01*
X76748Y69191D01*
X76644Y69341D01*
X76525Y69487D01*
X76392Y69629D01*
X77453Y70690D01*
X77595Y70557D01*
D02*
G37*
G36*
X7021Y69306D02*
X6888Y69165D01*
X6770Y69018D01*
X6665Y68868D01*
X6575Y68713D01*
X6499Y68555D01*
X6437Y68392D01*
X6389Y68224D01*
X6356Y68053D01*
X6336Y67877D01*
X6331Y67697D01*
X4351Y69677D01*
X4531Y69682D01*
X4707Y69702D01*
X4878Y69735D01*
X5046Y69783D01*
X5209Y69845D01*
X5367Y69921D01*
X5522Y70011D01*
X5672Y70116D01*
X5818Y70234D01*
X5961Y70367D01*
X7021Y69306D01*
D02*
G37*
G36*
X164572Y67600D02*
X164441Y67723D01*
X164303Y67834D01*
X164158Y67931D01*
X164006Y68016D01*
X163847Y68088D01*
X163681Y68146D01*
X163507Y68191D01*
X163327Y68224D01*
X163140Y68243D01*
X162946Y68250D01*
Y69750D01*
X163140Y69756D01*
X163327Y69776D01*
X163507Y69809D01*
X163681Y69854D01*
X163847Y69913D01*
X164006Y69984D01*
X164158Y70068D01*
X164303Y70166D01*
X164441Y70276D01*
X164572Y70400D01*
Y67600D01*
D02*
G37*
G36*
X25705Y70075D02*
X25827Y69955D01*
X25958Y69848D01*
X26098Y69756D01*
X26248Y69678D01*
X26407Y69614D01*
X26576Y69564D01*
X26753Y69528D01*
X26940Y69507D01*
X27136Y69500D01*
X26932Y68000D01*
X26740Y67994D01*
X26553Y67977D01*
X26371Y67949D01*
X26194Y67909D01*
X26023Y67858D01*
X25856Y67796D01*
X25695Y67722D01*
X25539Y67637D01*
X25388Y67540D01*
X25242Y67432D01*
X25592Y70210D01*
X25705Y70075D01*
D02*
G37*
G36*
X97190Y67629D02*
X97057Y67487D01*
X96938Y67341D01*
X96834Y67191D01*
X96744Y67036D01*
X96668Y66877D01*
X96606Y66714D01*
X96558Y66547D01*
X96525Y66376D01*
X96505Y66200D01*
X96500Y66020D01*
X94520Y68000D01*
X94700Y68005D01*
X94876Y68025D01*
X95047Y68058D01*
X95214Y68106D01*
X95377Y68168D01*
X95536Y68244D01*
X95691Y68334D01*
X95841Y68439D01*
X95987Y68557D01*
X96129Y68690D01*
X97190Y67629D01*
D02*
G37*
G36*
X139224Y65081D02*
X139139Y65224D01*
X139042Y65353D01*
X138932Y65466D01*
X138809Y65564D01*
X138674Y65648D01*
X138526Y65716D01*
X138365Y65769D01*
X138192Y65806D01*
X138006Y65829D01*
X137807Y65837D01*
X138312Y67337D01*
X138502Y67341D01*
X138871Y67375D01*
X139050Y67404D01*
X139396Y67488D01*
X139564Y67543D01*
X139889Y67677D01*
X140045Y67757D01*
X139224Y65081D01*
D02*
G37*
G36*
X63574Y67088D02*
X63588Y66913D01*
X63617Y66742D01*
X63661Y66575D01*
X63719Y66412D01*
X63793Y66254D01*
X63881Y66099D01*
X63984Y65948D01*
X64103Y65802D01*
X64236Y65659D01*
X63133Y64640D01*
X62992Y64773D01*
X62846Y64892D01*
X62696Y64997D01*
X62542Y65090D01*
X62383Y65168D01*
X62220Y65234D01*
X62053Y65285D01*
X61881Y65324D01*
X61705Y65349D01*
X61525Y65360D01*
X63575Y67267D01*
X63574Y67088D01*
D02*
G37*
G36*
X72558Y65072D02*
X72681Y64952D01*
X72814Y64846D01*
X72955Y64754D01*
X73106Y64677D01*
X73266Y64613D01*
X73434Y64564D01*
X73612Y64528D01*
X73799Y64507D01*
X73995Y64500D01*
X73807Y63000D01*
X73614Y62994D01*
X73427Y62977D01*
X73245Y62948D01*
X73069Y62908D01*
X72898Y62856D01*
X72732Y62793D01*
X72571Y62719D01*
X72416Y62632D01*
X72265Y62535D01*
X72121Y62425D01*
X72444Y65207D01*
X72558Y65072D01*
D02*
G37*
G36*
X55005Y63800D02*
X55025Y63624D01*
X55058Y63453D01*
X55106Y63286D01*
X55168Y63123D01*
X55244Y62964D01*
X55334Y62809D01*
X55438Y62659D01*
X55557Y62513D01*
X55690Y62371D01*
X54629Y61310D01*
X54487Y61443D01*
X54341Y61561D01*
X54191Y61666D01*
X54036Y61756D01*
X53877Y61832D01*
X53714Y61894D01*
X53547Y61942D01*
X53376Y61975D01*
X53200Y61995D01*
X53020Y62000D01*
X55000Y63980D01*
X55005Y63800D01*
D02*
G37*
G36*
X107834Y60601D02*
X107677Y60677D01*
X107353Y60804D01*
X107185Y60856D01*
X106838Y60936D01*
X106659Y60964D01*
X106291Y60996D01*
X106101Y61000D01*
X105554Y62500D01*
X105753Y62508D01*
X105939Y62530D01*
X106112Y62568D01*
X106271Y62621D01*
X106418Y62690D01*
X106552Y62773D01*
X106672Y62872D01*
X106779Y62986D01*
X106873Y63115D01*
X106954Y63259D01*
X107834Y60601D01*
D02*
G37*
G36*
X110755Y62179D02*
X110775Y62003D01*
X110808Y61832D01*
X110856Y61664D01*
X110918Y61501D01*
X110994Y61343D01*
X111084Y61188D01*
X111189Y61038D01*
X111307Y60891D01*
X111440Y60750D01*
X110379Y59689D01*
X110237Y59822D01*
X110091Y59940D01*
X109941Y60044D01*
X109786Y60135D01*
X109627Y60211D01*
X109464Y60273D01*
X109297Y60321D01*
X109126Y60354D01*
X108950Y60374D01*
X108770Y60379D01*
X110750Y62359D01*
X110755Y62179D01*
D02*
G37*
G36*
X41757Y53860D02*
X41776Y53673D01*
X41809Y53492D01*
X41854Y53319D01*
X41912Y53153D01*
X41984Y52994D01*
X42069Y52842D01*
X42166Y52697D01*
X42277Y52559D01*
X42400Y52428D01*
X39600D01*
X39723Y52559D01*
X39834Y52697D01*
X39931Y52842D01*
X40016Y52994D01*
X40087Y53153D01*
X40146Y53319D01*
X40191Y53492D01*
X40224Y53673D01*
X40244Y53860D01*
X40250Y54054D01*
X41750D01*
X41757Y53860D01*
D02*
G37*
G36*
X150460Y51612D02*
X150363Y51461D01*
X150278Y51305D01*
X150204Y51144D01*
X150142Y50977D01*
X150091Y50806D01*
X150051Y50629D01*
X150023Y50447D01*
X150006Y50260D01*
X150000Y50068D01*
X148500Y49864D01*
X148493Y50060D01*
X148472Y50247D01*
X148436Y50424D01*
X148386Y50593D01*
X148322Y50752D01*
X148244Y50901D01*
X148152Y51042D01*
X148045Y51173D01*
X147924Y51295D01*
X147789Y51408D01*
X150568Y51758D01*
X150460Y51612D01*
D02*
G37*
G36*
X141572Y46600D02*
X141441Y46723D01*
X141303Y46834D01*
X141158Y46932D01*
X141006Y47016D01*
X140847Y47087D01*
X140681Y47146D01*
X140507Y47192D01*
X140327Y47224D01*
X140140Y47243D01*
X139946Y47250D01*
Y48750D01*
X140140Y48756D01*
X140327Y48776D01*
X140507Y48808D01*
X140681Y48854D01*
X140847Y48913D01*
X141006Y48984D01*
X141158Y49068D01*
X141303Y49166D01*
X141441Y49276D01*
X141572Y49400D01*
Y46600D01*
D02*
G37*
G36*
X117169Y43945D02*
X117114Y44050D01*
X117044Y44145D01*
X116962Y44228D01*
X116866Y44300D01*
X116756Y44361D01*
X116632Y44411D01*
X116495Y44450D01*
X116345Y44478D01*
X116181Y44494D01*
X116003Y44500D01*
X116239Y46000D01*
X116453Y46003D01*
X116841Y46031D01*
X117015Y46055D01*
X117325Y46123D01*
X117460Y46167D01*
X117583Y46218D01*
X117692Y46276D01*
X117788Y46341D01*
X117169Y43945D01*
D02*
G37*
G36*
X83833Y41096D02*
X83702Y40958D01*
X83468Y40670D01*
X83365Y40521D01*
X83271Y40367D01*
X83187Y40210D01*
X83113Y40048D01*
X83048Y39883D01*
X82993Y39714D01*
X82947Y39541D01*
X81498Y41937D01*
X81664Y41903D01*
X81829Y41888D01*
X81991Y41892D01*
X82150Y41914D01*
X82307Y41955D01*
X82462Y42015D01*
X82615Y42094D01*
X82765Y42191D01*
X82912Y42307D01*
X83057Y42442D01*
X83833Y41096D01*
D02*
G37*
G36*
X143572Y41600D02*
X143441Y41723D01*
X143303Y41834D01*
X143158Y41932D01*
X143006Y42016D01*
X142847Y42087D01*
X142681Y42146D01*
X142507Y42192D01*
X142327Y42224D01*
X142140Y42243D01*
X141946Y42250D01*
Y43750D01*
X142140Y43756D01*
X142327Y43776D01*
X142507Y43808D01*
X142681Y43854D01*
X142847Y43913D01*
X143006Y43984D01*
X143158Y44068D01*
X143303Y44166D01*
X143441Y44276D01*
X143572Y44400D01*
Y41600D01*
D02*
G37*
G36*
X118559Y39776D02*
X118697Y39666D01*
X118842Y39569D01*
X118994Y39484D01*
X119153Y39413D01*
X119319Y39354D01*
X119493Y39309D01*
X119673Y39276D01*
X119860Y39256D01*
X120054Y39250D01*
Y37750D01*
X119860Y37743D01*
X119673Y37724D01*
X119493Y37692D01*
X119319Y37646D01*
X119153Y37587D01*
X118994Y37516D01*
X118842Y37431D01*
X118697Y37334D01*
X118559Y37223D01*
X118428Y37100D01*
Y39900D01*
X118559Y39776D01*
D02*
G37*
G36*
X7809Y35277D02*
X7947Y35166D01*
X8092Y35069D01*
X8244Y34984D01*
X8403Y34913D01*
X8569Y34854D01*
X8742Y34808D01*
X8923Y34776D01*
X9110Y34757D01*
X9304Y34750D01*
Y33250D01*
X9110Y33244D01*
X8923Y33224D01*
X8742Y33191D01*
X8569Y33146D01*
X8403Y33087D01*
X8244Y33016D01*
X8092Y32931D01*
X7947Y32834D01*
X7809Y32724D01*
X7678Y32600D01*
Y35400D01*
X7809Y35277D01*
D02*
G37*
G36*
X14004Y30048D02*
X14067Y29985D01*
X15017Y24967D01*
X14033Y23983D01*
X13500Y22696D01*
Y21304D01*
X14033Y20017D01*
X12076Y15967D01*
X10546Y14800D01*
X8953D01*
X7415Y14388D01*
X7039Y14171D01*
X3320Y15510D01*
X2039Y16416D01*
Y25461D01*
X5355Y29500D01*
X7145D01*
X8799Y30185D01*
X14004Y30048D01*
D02*
G37*
G36*
X8675Y131444D02*
X8742D01*
X8834Y131427D01*
X8934Y131410D01*
X9042Y131394D01*
X9167Y131360D01*
X9300Y131319D01*
X9433Y131269D01*
X9575Y131210D01*
X9717Y131136D01*
X9867Y131052D01*
X10008Y130952D01*
X10150Y130844D01*
X10283Y130711D01*
X10291Y130702D01*
X10316Y130677D01*
X10350Y130636D01*
X10391Y130577D01*
X10441Y130511D01*
X10500Y130419D01*
X10566Y130319D01*
X10625Y130202D01*
X10691Y130077D01*
X10758Y129936D01*
X10816Y129786D01*
X10866Y129619D01*
X10908Y129444D01*
X10941Y129261D01*
X10966Y129069D01*
X10975Y128861D01*
Y128819D01*
X10966Y128761D01*
Y128694D01*
X10958Y128603D01*
X10941Y128503D01*
X10925Y128394D01*
X10900Y128270D01*
X10866Y128136D01*
X10825Y128003D01*
X10783Y127861D01*
X10725Y127720D01*
X10650Y127578D01*
X10575Y127445D01*
X10483Y127303D01*
X10375Y127178D01*
X10366Y127170D01*
X10350Y127153D01*
X10316Y127120D01*
X10266Y127070D01*
X10208Y127020D01*
X10133Y126961D01*
X10050Y126903D01*
X9950Y126837D01*
X9850Y126770D01*
X9725Y126703D01*
X9600Y126637D01*
X9458Y126578D01*
X9308Y126528D01*
X9150Y126478D01*
X8983Y126445D01*
X8809Y126420D01*
X8684Y127361D01*
X8692D01*
X8717Y127370D01*
X8759Y127378D01*
X8817Y127395D01*
X8884Y127411D01*
X8959Y127428D01*
X9133Y127486D01*
X9325Y127561D01*
X9517Y127653D01*
X9692Y127770D01*
X9767Y127836D01*
X9842Y127903D01*
Y127911D01*
X9858Y127920D01*
X9875Y127945D01*
X9900Y127970D01*
X9950Y128053D01*
X10016Y128170D01*
X10083Y128311D01*
X10133Y128469D01*
X10175Y128661D01*
X10192Y128861D01*
Y128928D01*
X10183Y128978D01*
X10175Y129028D01*
X10166Y129103D01*
X10133Y129253D01*
X10083Y129436D01*
X10000Y129628D01*
X9941Y129719D01*
X9883Y129811D01*
X9817Y129902D01*
X9733Y129994D01*
X9725Y130002D01*
X9708Y130011D01*
X9683Y130036D01*
X9650Y130069D01*
X9608Y130102D01*
X9550Y130136D01*
X9492Y130177D01*
X9417Y130227D01*
X9250Y130311D01*
X9058Y130377D01*
X8834Y130436D01*
X8717Y130444D01*
X8592Y130452D01*
X8583D01*
X8567D01*
X8525D01*
X8484Y130444D01*
X8425Y130436D01*
X8367Y130427D01*
X8217Y130402D01*
X8042Y130344D01*
X7867Y130269D01*
X7775Y130219D01*
X7692Y130161D01*
X7609Y130094D01*
X7526Y130019D01*
X7517Y130011D01*
X7509Y130002D01*
X7484Y129977D01*
X7459Y129944D01*
X7426Y129902D01*
X7392Y129853D01*
X7309Y129727D01*
X7234Y129569D01*
X7167Y129386D01*
X7117Y129178D01*
X7109Y129061D01*
X7101Y128944D01*
Y128894D01*
X7109Y128836D01*
Y128761D01*
X7126Y128661D01*
X7142Y128553D01*
X7167Y128420D01*
X7201Y128278D01*
X6376Y128378D01*
Y128394D01*
X6384Y128436D01*
X6392Y128486D01*
Y128595D01*
X6384Y128636D01*
Y128694D01*
X6376Y128753D01*
X6351Y128894D01*
X6317Y129061D01*
X6259Y129244D01*
X6184Y129436D01*
X6076Y129619D01*
Y129628D01*
X6059Y129644D01*
X6043Y129661D01*
X6018Y129694D01*
X5943Y129777D01*
X5834Y129869D01*
X5701Y129952D01*
X5534Y130036D01*
X5443Y130069D01*
X5334Y130086D01*
X5226Y130102D01*
X5109Y130111D01*
X5101D01*
X5084D01*
X5059D01*
X5018Y130102D01*
X4926Y130094D01*
X4801Y130069D01*
X4668Y130027D01*
X4526Y129961D01*
X4376Y129869D01*
X4310Y129819D01*
X4243Y129753D01*
X4226Y129736D01*
X4193Y129686D01*
X4135Y129611D01*
X4068Y129511D01*
X4010Y129378D01*
X3951Y129219D01*
X3918Y129044D01*
X3901Y128844D01*
Y128794D01*
X3910Y128753D01*
Y128703D01*
X3918Y128653D01*
X3943Y128519D01*
X3985Y128378D01*
X4051Y128220D01*
X4135Y128070D01*
X4251Y127920D01*
X4268Y127903D01*
X4318Y127861D01*
X4393Y127795D01*
X4510Y127728D01*
X4651Y127645D01*
X4834Y127570D01*
X5043Y127503D01*
X5284Y127453D01*
X5118Y126512D01*
X5109D01*
X5076Y126520D01*
X5026Y126528D01*
X4960Y126545D01*
X4884Y126570D01*
X4793Y126595D01*
X4693Y126628D01*
X4585Y126670D01*
X4343Y126778D01*
X4226Y126837D01*
X4101Y126912D01*
X3985Y126995D01*
X3868Y127086D01*
X3751Y127186D01*
X3652Y127295D01*
X3643Y127303D01*
X3627Y127320D01*
X3602Y127361D01*
X3568Y127403D01*
X3526Y127470D01*
X3485Y127536D01*
X3435Y127620D01*
X3385Y127720D01*
X3343Y127820D01*
X3293Y127936D01*
X3252Y128061D01*
X3210Y128195D01*
X3177Y128344D01*
X3152Y128495D01*
X3135Y128653D01*
X3127Y128819D01*
Y128928D01*
X3135Y128986D01*
X3143Y129044D01*
X3160Y129203D01*
X3193Y129378D01*
X3243Y129578D01*
X3310Y129777D01*
X3401Y129977D01*
Y129986D01*
X3410Y130002D01*
X3426Y130027D01*
X3451Y130069D01*
X3510Y130161D01*
X3593Y130277D01*
X3701Y130411D01*
X3826Y130544D01*
X3968Y130677D01*
X4135Y130794D01*
X4143D01*
X4151Y130802D01*
X4185Y130819D01*
X4218Y130836D01*
X4260Y130861D01*
X4310Y130885D01*
X4435Y130935D01*
X4585Y130985D01*
X4751Y131035D01*
X4934Y131069D01*
X5126Y131077D01*
X5134D01*
X5151D01*
X5176D01*
X5209D01*
X5309Y131060D01*
X5426Y131044D01*
X5568Y131011D01*
X5718Y130961D01*
X5876Y130894D01*
X6034Y130802D01*
X6043D01*
X6051Y130794D01*
X6101Y130752D01*
X6176Y130694D01*
X6267Y130602D01*
X6376Y130494D01*
X6484Y130352D01*
X6584Y130194D01*
X6684Y130011D01*
Y130019D01*
X6692Y130044D01*
X6701Y130077D01*
X6717Y130127D01*
X6734Y130177D01*
X6759Y130244D01*
X6826Y130402D01*
X6917Y130569D01*
X7026Y130744D01*
X7167Y130919D01*
X7342Y131069D01*
X7351Y131077D01*
X7367Y131086D01*
X7392Y131102D01*
X7434Y131127D01*
X7476Y131160D01*
X7534Y131194D01*
X7600Y131227D01*
X7684Y131260D01*
X7767Y131294D01*
X7859Y131327D01*
X8067Y131394D01*
X8309Y131435D01*
X8442Y131452D01*
X8575D01*
X8583D01*
X8617D01*
X8675Y131444D01*
D02*
G37*
%LPC*%
G36*
X87965Y137872D02*
X86573D01*
X85287Y137339D01*
X84302Y136354D01*
X83769Y135068D01*
Y133676D01*
X84302Y132389D01*
X85287Y131405D01*
X86573Y130872D01*
X87965D01*
X89252Y131405D01*
X90236Y132389D01*
X90769Y133676D01*
Y135068D01*
X90236Y136354D01*
X89252Y137339D01*
X87965Y137872D01*
D02*
G37*
G36*
X106696Y137500D02*
X105304D01*
X104017Y136967D01*
X103033Y135983D01*
X102500Y134696D01*
Y133304D01*
X103033Y132017D01*
X104017Y131033D01*
X105304Y130500D01*
X106696D01*
X107983Y131033D01*
X108967Y132017D01*
X109500Y133304D01*
Y134696D01*
X108967Y135983D01*
X107983Y136967D01*
X106696Y137500D01*
D02*
G37*
G36*
X163696Y136500D02*
X162304D01*
X161017Y135967D01*
X160033Y134983D01*
X159500Y133696D01*
Y132304D01*
X160033Y131017D01*
X161017Y130033D01*
X162304Y129500D01*
X163696D01*
X164983Y130033D01*
X165967Y131017D01*
X166500Y132304D01*
Y133696D01*
X165967Y134983D01*
X164983Y135967D01*
X163696Y136500D01*
D02*
G37*
G36*
X55171Y136570D02*
X53779D01*
X52492Y136037D01*
X51508Y135052D01*
X50975Y133766D01*
Y132373D01*
X51508Y131087D01*
X52492Y130102D01*
X53779Y129570D01*
X55171D01*
X56457Y130102D01*
X57442Y131087D01*
X62533Y131017D01*
X63517Y130033D01*
X64804Y129500D01*
X66196D01*
X67483Y130033D01*
X68467Y131017D01*
X69000Y132304D01*
Y133696D01*
X68467Y134983D01*
X67483Y135967D01*
X66196Y136500D01*
X64804D01*
X63517Y135967D01*
X62533Y134983D01*
X57442Y135052D01*
X56457Y136037D01*
X55171Y136570D01*
D02*
G37*
%LPD*%
D63*
X137250Y157250D02*
D03*
X149950D02*
D03*
D64*
X186750Y131650D02*
D03*
Y106250D02*
D03*
Y42750D02*
D03*
D66*
X22450Y8750D02*
D03*
X61050Y157250D02*
D03*
X22950D02*
D03*
X99150D02*
D03*
D67*
X124050Y8750D02*
D03*
X124550Y157250D02*
D03*
D69*
X113629Y57500D02*
X123564D01*
X84575Y60250D02*
X94075Y50750D01*
X61578Y67257D02*
Y67360D01*
Y67257D02*
X69103Y59731D01*
X108750Y62379D02*
X113629Y57500D01*
X109432Y54500D02*
X121128D01*
X97240Y80750D02*
X106718D01*
X114218Y88250D02*
X117654D01*
X106718Y80750D02*
X114218Y88250D01*
X66842Y57750D02*
X67995Y56597D01*
X73733D01*
X74386Y57250D01*
X59250Y57750D02*
X66842D01*
X121128Y54500D02*
X132628Y43000D01*
X69103Y59731D02*
X72624D01*
X73143Y60250D01*
X53000Y64000D02*
X59250Y57750D01*
X124023Y62750D02*
X127859Y66587D01*
X117240Y62750D02*
X124023D01*
X130973Y77654D02*
X144654D01*
X109463Y70526D02*
X117240Y62750D01*
X112392Y73527D02*
X115169Y70750D01*
X120377Y88250D02*
X130973Y77654D01*
X115169Y70750D02*
X142260D01*
X72771Y76521D02*
X74000Y77750D01*
X41000Y68750D02*
X48771Y76521D01*
X94500Y66000D02*
X99026Y70526D01*
X24717Y23901D02*
X24999D01*
X21536Y27082D02*
X24717Y23901D01*
X14739Y34000D02*
X21536Y27202D01*
X24999Y23901D02*
X28180Y20720D01*
X21536Y27082D02*
Y27202D01*
X6000Y34000D02*
X14739D01*
X28180Y20559D02*
Y20720D01*
X29739Y19000D02*
X40632D01*
X28180Y20559D02*
X29739Y19000D01*
X85122Y43445D02*
X113565D01*
X116250Y40760D01*
Y40629D02*
Y40760D01*
X83250Y57250D02*
X94055Y46445D01*
X114808D01*
X116250Y40629D02*
X116522Y40357D01*
X116003Y45250D02*
X118750D01*
X81677Y40000D02*
X85122Y43445D01*
X116522Y38978D02*
Y40357D01*
Y38978D02*
X117000Y38500D01*
X114808Y46445D02*
X116003Y45250D01*
X98889Y94129D02*
X108010Y103250D01*
X121750D01*
X84249Y94129D02*
X98889D01*
X100412Y91129D02*
X103533Y94250D01*
X92119Y91129D02*
X100412D01*
X103533Y94250D02*
X122862D01*
X99000Y85000D02*
X105250Y91250D01*
X121620D01*
X122862Y94250D02*
X129362Y87750D01*
X83228Y20254D02*
X84633Y18849D01*
X117069Y20254D02*
X118323Y19000D01*
X45486Y17667D02*
X48074Y20254D01*
X83228D01*
X84633Y18849D02*
X88154D01*
X89559Y20254D01*
X118323Y19000D02*
X119000D01*
X89559Y20254D02*
X117069D01*
X41965Y17667D02*
X45486D01*
X40632Y19000D02*
X41965Y17667D01*
X144654Y77654D02*
X145000Y78000D01*
X117654Y88250D02*
X117654Y88250D01*
X91740Y69250D02*
X96016Y73527D01*
X129362Y87750D02*
X149760D01*
X121620Y91250D02*
X128120Y84750D01*
X161073D01*
X144010Y69000D02*
X166000D01*
X116411Y73750D02*
X146760D01*
X117654Y88250D02*
X120377D01*
X142260Y70750D02*
X144010Y69000D01*
X48771Y76521D02*
X72771D01*
X112556Y77606D02*
X116411Y73750D01*
X74386Y57250D02*
X83250D01*
X132628Y43000D02*
X145000D01*
X92740Y61750D02*
X107445D01*
X70864Y63981D02*
X71095Y63750D01*
X108074Y62379D02*
X108750D01*
X105682Y50750D02*
X109432Y54500D01*
X73143Y60250D02*
X84575D01*
X73561Y73521D02*
X79082Y68000D01*
X57197Y73521D02*
X73561D01*
X52677Y69000D02*
X57197Y73521D01*
X73750Y81250D02*
X74000Y81000D01*
X129750Y124995D02*
Y140964D01*
X137250Y148464D01*
Y157250D01*
X107445Y61750D02*
X108074Y62379D01*
X146760Y73750D02*
X148010Y75000D01*
X163000D01*
X74000Y77750D02*
Y81000D01*
X149760Y87750D02*
X153017Y91006D01*
X165934D01*
X70250Y85750D02*
X86740D01*
X121750Y103250D02*
X133000Y92000D01*
X87384Y77606D02*
X112556D01*
X74000Y77750D02*
X87240D01*
X95990Y82000D02*
X97240Y80750D01*
X87240Y77750D02*
X87384Y77606D01*
X139737Y66587D02*
X140323Y66000D01*
X52000Y69000D02*
X52677D01*
X140323Y66000D02*
X141000D01*
X89000Y82000D02*
X95990D01*
X90250Y64240D02*
X92740Y61750D01*
X88346Y66250D02*
X90250Y64346D01*
X127859Y66587D02*
X139737D01*
X80708Y69250D02*
X91740D01*
X123564Y57500D02*
X133064Y48000D01*
X80843Y63750D02*
X83343Y66250D01*
X94075Y50750D02*
X105682D01*
X118750Y45250D02*
X119000Y45000D01*
X71095Y63750D02*
X80843D01*
X67000Y89000D02*
X70250Y85750D01*
X86740D02*
X92119Y91129D01*
X84000Y90000D02*
X84249Y90249D01*
Y94129D01*
Y112000D01*
X39000Y108000D02*
X52871Y94129D01*
X84249D01*
X96016Y73527D02*
X112392D01*
X24000Y69000D02*
X24250Y68750D01*
X41000D01*
X6376Y91982D02*
Y106309D01*
X149000Y53000D02*
X149250Y52750D01*
X81000Y40000D02*
X81677D01*
X41000Y51000D02*
Y68750D01*
X149250Y41240D02*
Y52750D01*
X146510Y38500D02*
X149250Y41240D01*
X117510Y38500D02*
X146510D01*
X99026Y70526D02*
X109463D01*
X90250Y64240D02*
Y64346D01*
X83343Y66250D02*
X88346D01*
X133064Y48000D02*
X143000D01*
X153250Y97250D02*
Y124595D01*
X149000Y93000D02*
X153250Y97250D01*
X129750Y124995D02*
X138000Y116745D01*
X149950Y127895D02*
X153250Y124595D01*
X149950Y127895D02*
Y157250D01*
X138000Y94000D02*
Y116745D01*
X161073Y84750D02*
X162323Y86000D01*
X163000D01*
X4331Y67677D02*
X10342Y73688D01*
X6376Y91982D02*
X10342Y88015D01*
Y73688D02*
Y88015D01*
D73*
X72075Y99993D02*
D03*
X171278Y87749D02*
D03*
X13066Y107111D02*
D03*
X5000Y115000D02*
D03*
X17500D02*
D03*
Y127500D02*
D03*
Y137000D02*
D03*
Y143750D02*
D03*
X132882Y62337D02*
D03*
X154544Y148109D02*
D03*
X145204Y140485D02*
D03*
X178259Y71291D02*
D03*
X70864Y63981D02*
D03*
X162496Y45244D02*
D03*
X176700Y45657D02*
D03*
X170476Y99515D02*
D03*
X177383Y112128D02*
D03*
X48738Y88272D02*
D03*
X60374Y89553D02*
D03*
X44459Y132580D02*
D03*
X175000Y125000D02*
D03*
X165410Y56626D02*
D03*
X176863Y55641D02*
D03*
X170000Y35000D02*
D03*
X175000Y160000D02*
D03*
X185000D02*
D03*
X190000Y155000D02*
D03*
X95000Y140000D02*
D03*
X119010Y146783D02*
D03*
X117384Y120318D02*
D03*
X129959Y17773D02*
D03*
X143974Y19649D02*
D03*
X146289Y31600D02*
D03*
X86393Y23099D02*
D03*
X43726Y21917D02*
D03*
X10000Y20000D02*
D03*
X5000Y25000D02*
D03*
X37500Y122000D02*
D03*
X65250Y146250D02*
D03*
X79250Y146750D02*
D03*
X99250Y145750D02*
D03*
X189001Y18000D02*
D03*
X184001Y8000D02*
D03*
X174001Y148000D02*
D03*
Y28000D02*
D03*
X179001Y18000D02*
D03*
X174001Y8000D02*
D03*
X169001Y138000D02*
D03*
X164001Y28000D02*
D03*
X169001Y18000D02*
D03*
X159001D02*
D03*
X144001Y148000D02*
D03*
X139001Y138000D02*
D03*
X119001D02*
D03*
X79001D02*
D03*
X54001Y148000D02*
D03*
X59001Y138000D02*
D03*
X44001Y148000D02*
D03*
X34001D02*
D03*
X39001Y138000D02*
D03*
X29001D02*
D03*
X76250Y118000D02*
D03*
X81500Y116750D02*
D03*
X48000Y58750D02*
D03*
X73750Y81250D02*
D03*
X94500Y66000D02*
D03*
X108750Y62379D02*
D03*
X79082Y68000D02*
D03*
X135000Y55000D02*
D03*
X70000Y116000D02*
D03*
X84000Y90000D02*
D03*
X67000Y89000D02*
D03*
X99000Y85000D02*
D03*
X52000Y69000D02*
D03*
X53000Y64000D02*
D03*
X19000Y68000D02*
D03*
X24000Y69000D02*
D03*
X28000Y81000D02*
D03*
X61500Y49000D02*
D03*
X41000Y51000D02*
D03*
X6250Y34000D02*
D03*
X117000Y38500D02*
D03*
X119000Y44750D02*
D03*
X141000Y66000D02*
D03*
X143000Y48000D02*
D03*
X149000Y53000D02*
D03*
X145000Y43000D02*
D03*
X112000Y39000D02*
D03*
X58000Y81000D02*
D03*
X57000Y100000D02*
D03*
X78429Y99472D02*
D03*
X137000Y126000D02*
D03*
X149000Y93000D02*
D03*
X138000Y94000D02*
D03*
X81000Y40000D02*
D03*
X75000Y39000D02*
D03*
X133000Y92000D02*
D03*
X145000Y78000D02*
D03*
X6376Y106309D02*
D03*
X4331Y67677D02*
D03*
X89000Y82000D02*
D03*
X61578Y67360D02*
D03*
X163000Y85000D02*
D03*
X165934Y91006D02*
D03*
X163000Y63000D02*
D03*
X166000Y69000D02*
D03*
X163000Y75000D02*
D03*
X119000Y19000D02*
D03*
X63286Y28842D02*
D03*
X25786D02*
D03*
X86850Y38349D02*
D03*
X100786Y28842D02*
D03*
X131965Y102963D02*
D03*
X33894Y93037D02*
D03*
X39000Y108000D02*
D03*
X58963Y127158D02*
D03*
X96463D02*
D03*
X110399Y116651D02*
D03*
X84249Y112000D02*
D03*
X94749Y101000D02*
D03*
X99749D02*
D03*
X44513Y116472D02*
D03*
X62249Y101000D02*
D03*
X17599Y94900D02*
D03*
X33250Y84250D02*
D03*
Y79250D02*
D03*
X49350Y38349D02*
D03*
X60000Y53500D02*
D03*
X65000D02*
D03*
X40236Y38528D02*
D03*
X12500Y59000D02*
D03*
X11850Y38349D02*
D03*
X22500Y54000D02*
D03*
X27500D02*
D03*
D74*
X137000Y126000D02*
X139750Y128750D01*
Y129000D01*
M02*
