G04*
G04 #@! TF.GenerationSoftware,Altium Limited,Altium Designer,23.11.1 (41)*
G04*
G04 Layer_Physical_Order=4*
G04 Layer_Color=6736896*
%FSLAX44Y44*%
%MOMM*%
G71*
G04*
G04 #@! TF.SameCoordinates,860607A7-82FE-4F03-8345-F0151ACF9F54*
G04*
G04*
G04 #@! TF.FilePolarity,Positive*
G04*
G01*
G75*
%ADD63C,1.1430*%
G04:AMPARAMS|DCode=64|XSize=1.143mm|YSize=1.143mm|CornerRadius=0.2858mm|HoleSize=0mm|Usage=FLASHONLY|Rotation=270.000|XOffset=0mm|YOffset=0mm|HoleType=Round|Shape=RoundedRectangle|*
%AMROUNDEDRECTD64*
21,1,1.1430,0.5715,0,0,270.0*
21,1,0.5715,1.1430,0,0,270.0*
1,1,0.5715,-0.2858,-0.2858*
1,1,0.5715,-0.2858,0.2858*
1,1,0.5715,0.2858,0.2858*
1,1,0.5715,0.2858,-0.2858*
%
%ADD64ROUNDEDRECTD64*%
G04:AMPARAMS|DCode=66|XSize=1.143mm|YSize=1.143mm|CornerRadius=0.2858mm|HoleSize=0mm|Usage=FLASHONLY|Rotation=180.000|XOffset=0mm|YOffset=0mm|HoleType=Round|Shape=RoundedRectangle|*
%AMROUNDEDRECTD66*
21,1,1.1430,0.5715,0,0,180.0*
21,1,0.5715,1.1430,0,0,180.0*
1,1,0.5715,-0.2858,0.2858*
1,1,0.5715,0.2858,0.2858*
1,1,0.5715,0.2858,-0.2858*
1,1,0.5715,-0.2858,-0.2858*
%
%ADD66ROUNDEDRECTD66*%
%ADD67R,1.1430X1.1430*%
%ADD68C,0.3000*%
%ADD70C,0.2500*%
%ADD73C,0.4000*%
%ADD74C,0.4000*%
%ADD75C,0.5000*%
%ADD76C,0.6000*%
G36*
X185410Y162551D02*
X187350Y161748D01*
X189096Y160581D01*
X190581Y159096D01*
X191748Y157350D01*
X192551Y155410D01*
X192667Y154829D01*
X189273Y151177D01*
X187954Y150400D01*
X185547D01*
X183323Y149479D01*
X181621Y147777D01*
X180700Y145553D01*
Y143146D01*
X181537Y140604D01*
X180751Y137649D01*
X179788Y136207D01*
X179450Y134507D01*
Y133150D01*
X186750D01*
Y130150D01*
X179450D01*
Y128792D01*
X179506Y128511D01*
X176639Y124304D01*
X175254Y123078D01*
X166534D01*
X165656Y123957D01*
X165148Y128536D01*
X165967Y131017D01*
X166500Y132304D01*
X166500Y132304D01*
Y133696D01*
X166500Y133696D01*
X165967Y134983D01*
X165967Y134983D01*
X164983Y135967D01*
X164983Y135967D01*
X163696Y136500D01*
X163696Y136500D01*
X162304Y136500D01*
X162304Y136500D01*
X161017Y135967D01*
X157381Y134494D01*
X154778Y134015D01*
X153845Y134078D01*
X153658Y134078D01*
X134271D01*
X134271Y134078D01*
X132710Y133768D01*
X132309Y133500D01*
X132105Y133500D01*
X132105Y133500D01*
X130451Y132815D01*
X130451Y132815D01*
X129185Y131549D01*
X128500Y129895D01*
X128500Y129895D01*
X128500Y128105D01*
X128500Y128105D01*
X129185Y126451D01*
X130451Y125185D01*
X130451Y125185D01*
X131908Y124582D01*
X132105Y124500D01*
X132105Y124500D01*
X132105Y124500D01*
X134269Y123477D01*
X135922Y118957D01*
Y107043D01*
X133895Y101500D01*
X132105D01*
X130451Y100815D01*
X130451D01*
X129451Y99815D01*
X129268Y99692D01*
X129268Y99692D01*
X128502Y98926D01*
X123352Y99358D01*
X121498Y100408D01*
X121278Y101478D01*
X121399Y102514D01*
X121952Y103341D01*
X122146Y104316D01*
Y105953D01*
X122210Y106049D01*
X122598Y108000D01*
X122210Y109951D01*
X122146Y110047D01*
Y113584D01*
X122278Y114250D01*
X122278Y114250D01*
X122146Y114916D01*
Y115290D01*
X121952Y116266D01*
X121952Y116266D01*
X121399Y117093D01*
X121083Y117409D01*
X120785Y117855D01*
X119483Y118725D01*
X119131Y118960D01*
X118802Y119025D01*
X117181Y119348D01*
X117180Y119348D01*
X116902Y119293D01*
X115230Y118960D01*
X114772Y118654D01*
X114525Y118605D01*
X113698Y118053D01*
X113698Y118053D01*
X113545Y117824D01*
X111532Y115811D01*
X111201Y115316D01*
X100933D01*
X98982Y114927D01*
X97328Y113822D01*
X95604Y112098D01*
X88348D01*
X87750Y112696D01*
X87749Y112696D01*
X87217Y113983D01*
X87217Y113983D01*
X86232Y114967D01*
X86232D01*
X84946Y115500D01*
X84946Y115500D01*
X83553Y115500D01*
X83553Y115500D01*
X82267Y114967D01*
X82267D01*
X79549Y115815D01*
X79132Y115988D01*
X78756Y116239D01*
X78313Y116327D01*
X77895Y116500D01*
X77443D01*
X77000Y116588D01*
X76557Y116500D01*
X76105D01*
X75687Y116327D01*
X75244Y116239D01*
X74868Y115988D01*
X74451Y115815D01*
X74131Y115495D01*
X73756Y115244D01*
X73505Y114869D01*
X73185Y114549D01*
X73012Y114132D01*
X72761Y113756D01*
X72673Y113313D01*
X72500Y112895D01*
Y112443D01*
X72412Y112000D01*
X72500Y111557D01*
Y111105D01*
X72673Y110688D01*
X72761Y110244D01*
X73012Y109868D01*
X73185Y109451D01*
X73505Y109131D01*
X73756Y108756D01*
X74412Y108099D01*
Y107594D01*
X74500Y107151D01*
Y106699D01*
X74673Y106282D01*
X74761Y105838D01*
X75012Y105463D01*
X75185Y105045D01*
X74972Y102766D01*
X73796Y100386D01*
X72807Y99081D01*
X48044D01*
X41967Y105157D01*
Y106017D01*
X41967Y106018D01*
X42500Y107304D01*
X42500Y107304D01*
X42500Y108696D01*
X42500Y108696D01*
X41967Y109983D01*
X41967D01*
X40983Y110967D01*
X40983Y110967D01*
X39743Y111481D01*
X39666Y111516D01*
X39009Y111872D01*
X36090Y114935D01*
X35000Y116626D01*
Y117922D01*
X34523Y119702D01*
X32724Y123500D01*
X34523Y127298D01*
X35000Y129079D01*
Y130922D01*
X34523Y132702D01*
X33601Y134298D01*
X32298Y135601D01*
X30702Y136523D01*
X28922Y137000D01*
X27078D01*
X25298Y136523D01*
X23702Y135601D01*
X22399Y134298D01*
X21477Y132702D01*
X21000Y130922D01*
Y129079D01*
X21477Y127298D01*
X23276Y123500D01*
X21477Y119702D01*
X21000Y117922D01*
Y116079D01*
X21477Y114298D01*
X22313Y112227D01*
X21774Y109251D01*
X19935Y107202D01*
X18761Y106028D01*
X17592Y105279D01*
X16230Y104544D01*
X13532Y103747D01*
X13231Y103706D01*
X10948Y105951D01*
X9720Y107672D01*
X9343Y108291D01*
X8359Y109276D01*
X7072Y109809D01*
X4712Y111124D01*
X2636Y113949D01*
X4127Y119949D01*
X12228D01*
Y126920D01*
X13475D01*
Y137252D01*
X12228D01*
Y141949D01*
X5292D01*
X4075Y144273D01*
X6700Y150857D01*
X8422Y151459D01*
X9047Y151200D01*
X11453D01*
X13125Y151750D01*
X15988D01*
X18392Y150288D01*
X20092Y149950D01*
X21450D01*
Y157250D01*
X24450D01*
Y149950D01*
X25807D01*
X27508Y150288D01*
X30000Y151692D01*
X32951D01*
X34447Y151200D01*
X36853D01*
X38042Y151692D01*
X45958D01*
X47147Y151200D01*
X49553D01*
X51049Y151692D01*
X53930D01*
X56492Y150288D01*
X58193Y149950D01*
X59550D01*
Y157250D01*
X62550D01*
Y149950D01*
X63907D01*
X65608Y150288D01*
X68000Y151692D01*
X71358D01*
X72547Y151200D01*
X74953D01*
X76142Y151692D01*
X84058D01*
X85247Y151200D01*
X87653D01*
X89149Y151692D01*
X91930D01*
X94592Y150288D01*
X96292Y149950D01*
X97650D01*
Y157250D01*
X100650D01*
Y149950D01*
X102008D01*
X103708Y150288D01*
X105149Y151251D01*
X105424Y151662D01*
X109532D01*
X110647Y151200D01*
X113053D01*
X117335Y150035D01*
Y150035D01*
X123050D01*
Y157250D01*
X126050D01*
Y150035D01*
X131765D01*
X131765Y150035D01*
X136047Y151200D01*
X138453D01*
X140677Y152121D01*
X146523D01*
X147416Y151751D01*
X148747Y151200D01*
X151153D01*
X153377Y152121D01*
X159223D01*
X160116Y151751D01*
X161447Y151200D01*
X163853D01*
X166077Y152121D01*
X167779Y153823D01*
X168700Y156047D01*
Y158453D01*
X173327Y162961D01*
X183350D01*
X185410Y162551D01*
D02*
G37*
G36*
X182634Y114985D02*
X182150Y115463D01*
X181665Y115891D01*
X181181Y116268D01*
X180697Y116595D01*
X180213Y116871D01*
X179729Y117098D01*
X179245Y117274D01*
X178761Y117399D01*
X178277Y117475D01*
X177793Y117500D01*
X177820Y120500D01*
X178302Y120525D01*
X178785Y120599D01*
X179270Y120724D01*
X179756Y120898D01*
X180243Y121122D01*
X180732Y121395D01*
X181223Y121718D01*
X181715Y122091D01*
X182209Y122514D01*
X182704Y122986D01*
X182634Y114985D01*
D02*
G37*
G36*
X119597Y115290D02*
Y104316D01*
X117031Y101750D01*
X112500D01*
X111500Y102750D01*
Y112000D01*
X115500Y116000D01*
Y116250D01*
X118637D01*
X119597Y115290D01*
D02*
G37*
G36*
X28621Y98782D02*
X28596Y98721D01*
X28574Y98640D01*
X28554Y98538D01*
X28537Y98415D01*
X28514Y98107D01*
X28500Y97489D01*
X26000D01*
X25998Y97716D01*
X25946Y98538D01*
X25926Y98640D01*
X25904Y98721D01*
X25879Y98782D01*
X25850Y98822D01*
X28650D01*
X28621Y98782D01*
D02*
G37*
G36*
X67686Y73496D02*
X67533Y73236D01*
X67398Y72964D01*
X67281Y72677D01*
X67182Y72378D01*
X67101Y72066D01*
X67047Y71786D01*
X67687D01*
X67548Y71629D01*
X67140Y71105D01*
X67074Y71000D01*
X67023Y70905D01*
X66986Y70821D01*
X66964Y70747D01*
X66957Y70683D01*
X63957D01*
X63950Y70747D01*
X63928Y70821D01*
X63891Y70905D01*
X63840Y71000D01*
X63775Y71105D01*
X63599Y71346D01*
X63366Y71629D01*
X63227Y71786D01*
X63867D01*
X63813Y72066D01*
X63732Y72378D01*
X63633Y72677D01*
X63516Y72964D01*
X63382Y73236D01*
X63229Y73496D01*
X63058Y73742D01*
X67857D01*
X67686Y73496D01*
D02*
G37*
G36*
X8698Y98078D02*
X9362Y97688D01*
X10017Y97033D01*
X11304Y96500D01*
X12696D01*
X15210Y96238D01*
X16681Y96048D01*
X16911Y96005D01*
X19508Y95094D01*
X19736Y94947D01*
X20128Y94685D01*
X21883Y94336D01*
X23718Y92914D01*
X24546Y91674D01*
X30863Y85358D01*
X30858Y85020D01*
X29523Y79455D01*
X29470Y79352D01*
X27448Y78950D01*
X27354Y78931D01*
X27354Y78931D01*
X25535Y77715D01*
X25207Y77224D01*
X25116Y77134D01*
X24232Y75811D01*
X23922Y74250D01*
X23922Y74250D01*
Y74250D01*
X23304Y72500D01*
X22017Y71967D01*
X22017Y71967D01*
X21033Y70983D01*
Y70982D01*
X20500Y69696D01*
Y68304D01*
X20500Y68304D01*
X21033Y67017D01*
X21033Y66144D01*
X12967Y58078D01*
X10707D01*
X10458Y58148D01*
X9417Y58680D01*
X6210Y61986D01*
X5736Y62882D01*
X6258Y64687D01*
X6314Y64710D01*
X6314Y64710D01*
X7298Y65695D01*
Y65695D01*
X7831Y66981D01*
X7831Y66981D01*
X7831Y68373D01*
X7831Y68373D01*
X7298Y69660D01*
Y69660D01*
X6314Y70644D01*
X6314Y70644D01*
X5028Y71177D01*
X5027Y71177D01*
X3635Y71177D01*
X2039Y76720D01*
Y94777D01*
X7610Y98277D01*
X8698Y98078D01*
D02*
G37*
G36*
X162091Y94412D02*
X162159Y92524D01*
X161286Y88112D01*
X161018Y87967D01*
X161017Y87967D01*
X161017Y87967D01*
X160033Y86983D01*
X159500Y85696D01*
X159500Y85696D01*
X159500Y85696D01*
X159500Y84304D01*
X159500Y84304D01*
X159841Y83480D01*
X160099Y82272D01*
X160300Y80000D01*
X160099Y77728D01*
X159841Y76520D01*
X159500Y75696D01*
X159500Y75696D01*
X159500Y74304D01*
X159500Y74304D01*
X159500Y74304D01*
X159821Y73528D01*
X160033Y73017D01*
X161017Y72033D01*
X161017Y72033D01*
X161017D01*
X162500Y69696D01*
X162500Y68304D01*
X162500Y68304D01*
X163033Y67017D01*
X163033Y67017D01*
X163033Y67017D01*
X164017Y66033D01*
X164017Y66033D01*
X165304Y65500D01*
X165304Y65500D01*
X165559Y65500D01*
X167268Y65370D01*
X170723Y64584D01*
X173047Y63355D01*
X173341Y63091D01*
X178824Y57608D01*
X178535Y56531D01*
Y54368D01*
X179095Y52279D01*
X179727Y51184D01*
X179394Y49609D01*
X175943Y47995D01*
X172510Y48008D01*
X170501Y50017D01*
X170380Y50198D01*
X170379Y50199D01*
X167451Y53127D01*
X167269Y53249D01*
X153078Y67439D01*
Y87343D01*
X152768Y88904D01*
X151884Y90227D01*
X151884Y90934D01*
X151967Y91017D01*
X151967Y91018D01*
X152500Y92304D01*
X152500Y92304D01*
X152500Y93696D01*
X152500Y93696D01*
X151967Y94982D01*
X151967Y94983D01*
X151967D01*
X150983Y95967D01*
X150983Y95967D01*
X149696Y96500D01*
X149696Y96500D01*
X149507Y96500D01*
X148481Y97707D01*
X148329Y98361D01*
X150878Y104150D01*
X152301Y104202D01*
X162091Y94412D01*
D02*
G37*
G36*
X112036Y47929D02*
X111050Y47894D01*
X110094Y47788D01*
X109167Y47611D01*
X108270Y47363D01*
X107402Y47045D01*
X106563Y46656D01*
X105753Y46197D01*
X104973Y45666D01*
X104222Y45065D01*
X103500Y44394D01*
X106000Y50429D01*
X112036Y47929D01*
D02*
G37*
G36*
X141877Y88699D02*
X143435Y87140D01*
X143503Y86700D01*
X143017Y80967D01*
X142033Y79983D01*
Y79983D01*
X141500Y78696D01*
X141500Y78696D01*
Y77304D01*
X141500Y77304D01*
X142033Y76017D01*
Y76017D01*
X140895Y69912D01*
X140304Y69500D01*
X139017Y68967D01*
X139017Y68967D01*
X138033Y67983D01*
Y67983D01*
X137500Y66696D01*
X137500Y66696D01*
X137500Y65304D01*
X138033Y64018D01*
Y64017D01*
X139017Y63033D01*
X139017Y63033D01*
X140304Y62500D01*
X140304Y62500D01*
X141696Y62500D01*
X145420Y61934D01*
X146146Y61606D01*
X146755Y55704D01*
X146346Y55296D01*
X145816Y54798D01*
X142528Y52000D01*
X141603Y51367D01*
X141017Y50967D01*
X141017Y50967D01*
X140033Y49983D01*
Y49983D01*
X139500Y48696D01*
X139500Y48696D01*
X139500Y47304D01*
X139500Y47304D01*
X141500Y42304D01*
X141500Y42304D01*
X142033Y41017D01*
X142033Y41017D01*
X143017Y40033D01*
X143017Y40033D01*
X144304Y39500D01*
X145696D01*
X146982Y40033D01*
X146983D01*
X147967Y41017D01*
X147967Y41017D01*
X148500Y42304D01*
X148500Y42304D01*
X148500Y43500D01*
X148500Y43696D01*
X149186Y47024D01*
X150978Y50025D01*
X151177Y50227D01*
X151967Y51017D01*
X158043Y50939D01*
X161623Y47360D01*
X161804Y47238D01*
X164490Y44552D01*
X164612Y44370D01*
X178535Y30447D01*
Y28968D01*
X179095Y26879D01*
X180177Y25006D01*
X181706Y23476D01*
X183579Y22395D01*
X185669Y21835D01*
X187832D01*
X192387Y18198D01*
X192961Y17221D01*
Y11650D01*
X192551Y9590D01*
X191747Y7650D01*
X190581Y5904D01*
X189096Y4419D01*
X187350Y3252D01*
X185410Y2449D01*
X183350Y2039D01*
X171919D01*
X171760Y2151D01*
X168200Y7547D01*
X168200Y8039D01*
Y9954D01*
X167279Y12177D01*
X165577Y13879D01*
X163353Y14800D01*
X160947D01*
X159701Y14284D01*
X158715Y13879D01*
X155800Y13720D01*
X152885Y13879D01*
X151899Y14284D01*
X150653Y14800D01*
X148246D01*
X147001Y14284D01*
X146015Y13879D01*
X143100Y13720D01*
X140185Y13879D01*
X139199Y14284D01*
X137953Y14800D01*
X136782D01*
X131265Y15965D01*
D01*
X125677Y16959D01*
X122500Y18304D01*
X122500Y19696D01*
X122500Y19696D01*
X121967Y20983D01*
X121967Y20983D01*
X120983Y21967D01*
X120322Y22241D01*
X119696Y22500D01*
X119696Y22500D01*
X118304Y22500D01*
X118304Y22500D01*
X116891Y22029D01*
X115714Y22519D01*
X112303Y23964D01*
X111500Y25696D01*
X110967Y26983D01*
X109983Y27967D01*
X109983Y27967D01*
X108696Y28500D01*
X108696Y28500D01*
X107304Y28500D01*
X107304Y28500D01*
X106017Y27967D01*
X105033Y26983D01*
X104500Y25696D01*
Y24304D01*
X105033Y23017D01*
Y23017D01*
X106017Y22033D01*
X106017Y22033D01*
X107304Y21500D01*
X110057Y17736D01*
X105232Y14594D01*
X104649Y14749D01*
X103208Y15712D01*
X101507Y16050D01*
X100150D01*
Y8750D01*
X97150D01*
Y16050D01*
X95792D01*
X94092Y15712D01*
X94092Y15712D01*
X92651Y14749D01*
X89695Y13964D01*
X87153Y14800D01*
X84747D01*
X82523Y13879D01*
X82277Y13633D01*
X76923D01*
X76677Y13879D01*
X74453Y14800D01*
X72046D01*
X69505Y13964D01*
X66549Y14749D01*
X65108Y15712D01*
X63407Y16050D01*
X62050D01*
Y8750D01*
X59050D01*
Y16050D01*
X57692D01*
X55992Y15712D01*
X55992Y15712D01*
X54551Y14749D01*
X51595Y13964D01*
X49053Y14800D01*
X46646D01*
X44423Y13879D01*
X43852Y13308D01*
X43675D01*
X38121Y14384D01*
X37308Y20047D01*
X37302Y20170D01*
X37341Y20391D01*
X37967Y21017D01*
X38500Y22304D01*
X38500Y22304D01*
X38500Y23696D01*
X38500Y23696D01*
X37967Y24983D01*
X36983Y25967D01*
X35696Y26500D01*
X34304D01*
X33017Y25967D01*
X32033Y24983D01*
X31500Y23696D01*
X31500Y23696D01*
X31500Y22304D01*
X31500Y22304D01*
D01*
X29273Y17444D01*
X28335Y16230D01*
X28136Y16153D01*
X26200Y15873D01*
X25307Y16050D01*
X24324D01*
X23174Y17098D01*
X20500Y21304D01*
X20500Y22696D01*
X20500Y22696D01*
X19967Y23983D01*
X19967Y23983D01*
X18983Y24967D01*
X18982D01*
X17696Y25500D01*
X17696Y25500D01*
X16304Y25500D01*
X15017Y24967D01*
X14033Y23983D01*
X14033Y23983D01*
X13500Y22696D01*
X13500Y22696D01*
X13500Y21304D01*
X13500Y21304D01*
X14032Y20019D01*
X14028Y20009D01*
X11272Y15340D01*
X10765Y14800D01*
X8547D01*
X8039Y14590D01*
X3314Y16830D01*
X2039Y18081D01*
Y25461D01*
X4559Y29073D01*
X6946Y30500D01*
X8233Y31033D01*
X9217Y32017D01*
X9750Y33304D01*
X9938Y34563D01*
X10084Y35106D01*
X13322Y39078D01*
X13789Y39430D01*
X32133D01*
X33049Y38818D01*
X35000Y38430D01*
X36951Y38818D01*
X37867Y39430D01*
X40206D01*
X41451Y38185D01*
X43105Y37500D01*
X44895D01*
X46549Y38185D01*
X47766Y39402D01*
X54821D01*
X54989Y39290D01*
X56940Y38902D01*
X68095D01*
X70046Y39290D01*
X71500Y40262D01*
X77500Y39304D01*
X78033Y38017D01*
X78033Y38017D01*
X79017Y37033D01*
X79018D01*
X80304Y36500D01*
X80304Y36500D01*
X81696Y36500D01*
X81696Y36500D01*
X82983Y37033D01*
X82983D01*
X83967Y38017D01*
X83967Y38017D01*
X84500Y39304D01*
X84500Y39304D01*
X85348Y40152D01*
X100821D01*
X102772Y40540D01*
X104426Y41645D01*
X105620Y42839D01*
X107365Y43153D01*
X109031Y42943D01*
X109266Y42881D01*
X113500Y39196D01*
X113500Y39196D01*
X113500Y37804D01*
X113500Y37804D01*
X114033Y36517D01*
X114033Y36517D01*
X115017Y35533D01*
X116304Y35000D01*
X117696D01*
X118983Y35533D01*
X118983D01*
X119967Y36517D01*
X119967Y36517D01*
X120500Y37804D01*
X120500Y37804D01*
X120500Y39196D01*
X121967Y42767D01*
X122500Y44054D01*
Y45446D01*
X122500Y45446D01*
X121967Y46733D01*
X121972Y46783D01*
X122034Y46824D01*
X122605Y47395D01*
X123524Y48770D01*
Y48770D01*
X123710Y49049D01*
Y49049D01*
X124098Y51000D01*
X124098Y51000D01*
X123710Y52951D01*
X123710Y52951D01*
X122791Y54326D01*
X122605Y54605D01*
X122605Y54605D01*
X122605D01*
X120951Y55710D01*
X120951Y55710D01*
X120622Y55775D01*
X119000Y56098D01*
X119000Y56098D01*
X118598Y56018D01*
X116676Y56191D01*
X113702Y57734D01*
X112100Y61321D01*
X112250Y61683D01*
Y63075D01*
X111717Y64361D01*
Y64361D01*
X115276Y69041D01*
X115536Y69300D01*
X115536Y69300D01*
X116420Y70624D01*
X117089Y72560D01*
X119895Y75500D01*
X121549Y76185D01*
X122815Y77451D01*
X122918Y77700D01*
X123541Y78116D01*
X129288Y83864D01*
X129288Y83864D01*
X130172Y85187D01*
Y85187D01*
X132304Y88500D01*
X132304Y88500D01*
X133696D01*
X134983Y89033D01*
X135967Y90017D01*
X135967Y90017D01*
X141877Y88699D01*
D02*
G37*
G36*
X9133Y133711D02*
X10975D01*
Y132769D01*
X9133D01*
Y129420D01*
X8267D01*
X3285Y132936D01*
Y133711D01*
X8267D01*
Y134752D01*
X9133D01*
Y133711D01*
D02*
G37*
%LPC*%
G36*
X55171Y136570D02*
X55171Y136570D01*
X53779D01*
X53778Y136570D01*
X52492Y136037D01*
X52492Y136037D01*
X51508Y135052D01*
X50975Y133766D01*
Y132373D01*
X51508Y131087D01*
Y131087D01*
X52492Y130103D01*
X52492Y130102D01*
X53778Y129570D01*
X53779Y129570D01*
X55171Y129570D01*
X55171Y129570D01*
X55946Y129891D01*
X55946D01*
X56457Y130102D01*
X60036Y130641D01*
X63505Y130045D01*
X63517Y130033D01*
X63518Y130033D01*
X64804Y129500D01*
X64804Y129500D01*
X66196Y129500D01*
X66196Y129500D01*
X67483Y130033D01*
X67483Y130033D01*
X68467Y131017D01*
X69000Y132304D01*
Y133696D01*
X68467Y134983D01*
Y134983D01*
X67483Y135967D01*
X67483Y135967D01*
X66196Y136500D01*
X66196Y136500D01*
X64804Y136500D01*
X64804Y136500D01*
X64028Y136179D01*
X64028D01*
X63517Y135967D01*
X59939Y135428D01*
X56470Y136024D01*
X56457Y136037D01*
X56457Y136037D01*
X55946Y136248D01*
X55171Y136570D01*
D02*
G37*
G36*
X86573Y137872D02*
X85287Y137339D01*
X84302Y136355D01*
X83769Y135068D01*
Y133676D01*
X84302Y132389D01*
X85287Y131405D01*
X86573Y130872D01*
X87965D01*
X89252Y131405D01*
X90236Y132389D01*
X90769Y133676D01*
Y135068D01*
X90236Y136355D01*
X89252Y137339D01*
X87965Y137872D01*
X86573D01*
D02*
G37*
G36*
X105304Y137500D02*
X104017Y136967D01*
X103033Y135983D01*
X102500Y134696D01*
Y133304D01*
X103033Y132017D01*
X104017Y131033D01*
X105304Y130500D01*
X106696D01*
X107983Y131033D01*
X108967Y132017D01*
X109500Y133304D01*
Y134696D01*
X108967Y135983D01*
X107983Y136967D01*
X106696Y137500D01*
X105304D01*
D02*
G37*
G36*
X69304Y31500D02*
X68017Y30967D01*
X67033Y29983D01*
X66500Y28696D01*
Y27304D01*
X67033Y26017D01*
X68017Y25033D01*
X69304Y24500D01*
X70696D01*
X71983Y25033D01*
X72967Y26017D01*
X73500Y27304D01*
Y28696D01*
X72967Y29983D01*
X71983Y30967D01*
X70696Y31500D01*
X69304D01*
D02*
G37*
G36*
X55304D02*
X54017Y30967D01*
X53033Y29983D01*
X52500Y28696D01*
Y27304D01*
X53033Y26017D01*
X54017Y25033D01*
X55304Y24500D01*
X56696D01*
X57983Y25033D01*
X58967Y26017D01*
X59500Y27304D01*
Y28696D01*
X58967Y29983D01*
X57983Y30967D01*
X56696Y31500D01*
X55304D01*
D02*
G37*
G36*
X93304Y30500D02*
X92017Y29967D01*
X91033Y28983D01*
X90500Y27696D01*
Y26304D01*
X91033Y25017D01*
X92017Y24033D01*
X93304Y23500D01*
X94696D01*
X95983Y24033D01*
X96967Y25017D01*
X97500Y26304D01*
Y27696D01*
X96967Y28983D01*
X95983Y29967D01*
X94696Y30500D01*
X93304D01*
D02*
G37*
G36*
X8267Y132769D02*
X4801D01*
X8267Y130345D01*
Y132769D01*
D02*
G37*
%LPD*%
D63*
X186750Y55450D02*
D03*
Y118950D02*
D03*
Y30050D02*
D03*
D64*
Y131650D02*
D03*
D66*
X60550Y8750D02*
D03*
X22450D02*
D03*
X98650D02*
D03*
X61050Y157250D02*
D03*
X22950D02*
D03*
X99150D02*
D03*
D67*
X124050Y8750D02*
D03*
X124550Y157250D02*
D03*
D68*
X167496Y47254D02*
X184700Y30050D01*
X164567Y50244D02*
X167496Y47315D01*
X164506Y50244D02*
X164567D01*
X184700Y30050D02*
X186750D01*
X149000Y65750D02*
Y87343D01*
Y65750D02*
X164506Y50244D01*
X167496Y47254D02*
Y47315D01*
X15571Y55000D02*
X15657D01*
X7000Y51000D02*
X10000Y54000D01*
X14571D01*
X15571Y55000D01*
X65457Y70683D02*
Y75543D01*
X151462Y110809D02*
X166755Y95515D01*
X170583D02*
X176278Y89820D01*
X145191Y110809D02*
X151462D01*
X174259Y67941D02*
Y78717D01*
X176278Y80737D01*
X166755Y95515D02*
X170583D01*
X145000Y111000D02*
X145191Y110809D01*
X174259Y67941D02*
X186750Y55450D01*
X83000Y64657D02*
X86809Y68465D01*
X15657Y55000D02*
X28000Y67343D01*
X86809Y73309D02*
X87000Y73500D01*
X112652Y72184D02*
Y80856D01*
X107745Y67277D02*
X112652Y72184D01*
X83714Y51286D02*
X84000Y51000D01*
X83000Y58464D02*
X83714Y57750D01*
X83000Y58464D02*
Y64657D01*
X120271Y81000D02*
X120657D01*
X126404Y91061D02*
X132152Y96809D01*
X132809D01*
X126404Y86748D02*
Y91061D01*
X132809Y96809D02*
X133000Y97000D01*
X142000Y94343D02*
Y98310D01*
X119271Y80000D02*
X120271Y81000D01*
X120657D02*
X126404Y86748D01*
X119000Y80000D02*
X119271D01*
X86809Y68465D02*
Y73309D01*
X65578Y65703D02*
Y70563D01*
X54875Y55000D02*
X65578Y65703D01*
X28000Y67343D02*
Y74250D01*
X83714Y51286D02*
Y57750D01*
X65457Y70683D02*
X65578Y70563D01*
X51000Y55000D02*
X54875D01*
X28000Y74250D02*
X28500Y74750D01*
X46000Y50000D02*
X51000Y55000D01*
X164845Y119000D02*
X186700D01*
X186750Y118950D01*
X176278Y80737D02*
Y89820D01*
X140000Y100310D02*
Y122000D01*
X142000Y94343D02*
X149000Y87343D01*
X140000Y100310D02*
X142000Y98310D01*
X134271Y130000D02*
X153845D01*
X164845Y119000D01*
X133271Y129000D02*
X134271Y130000D01*
X133000Y129000D02*
X133271D01*
D70*
X27250Y94377D02*
X33627Y88000D01*
X27250Y94377D02*
Y100250D01*
X33627Y88000D02*
X34803D01*
X43000Y79803D01*
Y74543D02*
Y79803D01*
D73*
X83750Y51250D02*
D03*
X72075Y99993D02*
D03*
X13066Y107111D02*
D03*
X5000Y115000D02*
D03*
X17500D02*
D03*
Y127500D02*
D03*
Y137000D02*
D03*
Y143750D02*
D03*
X132882Y62337D02*
D03*
X79389Y15862D02*
D03*
X154544Y148109D02*
D03*
X145204Y140485D02*
D03*
X139889Y80977D02*
D03*
X133705Y80904D02*
D03*
X162496Y45244D02*
D03*
X23930Y18960D02*
D03*
X44459Y132580D02*
D03*
X175000Y125000D02*
D03*
X165410Y56626D02*
D03*
X176863Y55641D02*
D03*
X170000Y35000D02*
D03*
X175000Y160000D02*
D03*
X185000D02*
D03*
X190000Y155000D02*
D03*
X95000Y140000D02*
D03*
X119010Y146783D02*
D03*
X117384Y120318D02*
D03*
X129959Y17773D02*
D03*
X143974Y19649D02*
D03*
X146289Y31600D02*
D03*
X86393Y23099D02*
D03*
X43726Y21917D02*
D03*
X10000Y20000D02*
D03*
X5000Y25000D02*
D03*
X37500Y122000D02*
D03*
X65250Y146250D02*
D03*
X79250Y146750D02*
D03*
X99250Y145750D02*
D03*
X189001Y18000D02*
D03*
X184001Y8000D02*
D03*
X174001Y148000D02*
D03*
Y28000D02*
D03*
X179001Y18000D02*
D03*
X174001Y8000D02*
D03*
X169001Y138000D02*
D03*
X164001Y28000D02*
D03*
X169001Y18000D02*
D03*
X159001D02*
D03*
X144001Y148000D02*
D03*
X139001Y138000D02*
D03*
X119001D02*
D03*
X79001D02*
D03*
X54001Y148000D02*
D03*
X59001Y138000D02*
D03*
X44001Y148000D02*
D03*
X34001D02*
D03*
X39001Y138000D02*
D03*
X29001D02*
D03*
X117500Y108000D02*
D03*
X117180Y114250D02*
D03*
X76250Y118000D02*
D03*
X81500Y116750D02*
D03*
X107745Y67277D02*
D03*
X135000Y55000D02*
D03*
X70000Y116000D02*
D03*
X106000Y85000D02*
D03*
X112402Y80856D02*
D03*
X119000Y80000D02*
D03*
X87000Y73500D02*
D03*
X19000Y68000D02*
D03*
X34000Y64000D02*
D03*
X28000Y81000D02*
D03*
X81000Y45250D02*
D03*
X46000Y50750D02*
D03*
X44000Y42000D02*
D03*
X7000Y51000D02*
D03*
X119000Y51250D02*
D03*
X112000Y39000D02*
D03*
X57000Y100000D02*
D03*
X79000Y107594D02*
D03*
X75000Y39000D02*
D03*
X133000Y97000D02*
D03*
X163000Y63000D02*
D03*
X63286Y28842D02*
D03*
X25786D02*
D03*
X86850Y38349D02*
D03*
X100786Y28842D02*
D03*
X119000Y66000D02*
D03*
X150000Y103000D02*
D03*
X131965Y102963D02*
D03*
X145000Y111000D02*
D03*
X140000Y122000D02*
D03*
X133000Y129000D02*
D03*
X77000Y112000D02*
D03*
X58963Y127158D02*
D03*
X96463D02*
D03*
X110399Y116651D02*
D03*
X44513Y116472D02*
D03*
X62249Y101000D02*
D03*
X27250Y100250D02*
D03*
X22116Y99157D02*
D03*
X17599Y94900D02*
D03*
X7092Y80964D02*
D03*
X49350Y38349D02*
D03*
X40236Y38528D02*
D03*
X12500Y59000D02*
D03*
X7593Y42866D02*
D03*
X11850Y38349D02*
D03*
D74*
X74353Y94493D02*
X74360Y94500D01*
X96500D02*
X106000Y85000D01*
X74360Y94500D02*
X96500D01*
X34886Y105750D02*
X46143Y94493D01*
X74353D01*
X114500Y97136D02*
Y101864D01*
X117500Y104864D01*
Y108000D01*
X21750Y99058D02*
Y102528D01*
X24972Y105750D02*
X34886D01*
X21750Y99058D02*
X21883Y98924D01*
X21750Y102528D02*
X24972Y105750D01*
X112652Y80856D02*
Y95288D01*
X79000Y107594D02*
X79594Y107000D01*
X85500D01*
X77000Y112000D02*
X79000Y110000D01*
Y107594D02*
Y110000D01*
X112652Y95288D02*
X114500Y97136D01*
D75*
X8256Y44528D02*
X44000D01*
X113594Y109075D02*
X115136Y110618D01*
X113594Y109075D02*
Y109075D01*
X112451Y110218D02*
X113594Y109075D01*
Y109075D02*
X114668Y108000D01*
X115136Y112206D02*
X117180Y114250D01*
X115136Y110618D02*
Y112206D01*
X114668Y108000D02*
X117500D01*
X56940Y44000D02*
X56940Y44000D01*
X46000Y44500D02*
X56940D01*
X68095Y44000D02*
X69723Y45628D01*
X56940Y44000D02*
X68095D01*
X69723Y45628D02*
X80878D01*
X100933Y110218D02*
X112451D01*
X85500Y107000D02*
X97715D01*
X100933Y110218D01*
X101745Y62313D02*
Y71529D01*
X106000Y75784D02*
Y85000D01*
X101745Y62313D02*
X107500Y56558D01*
Y51929D02*
Y56558D01*
X101745Y71529D02*
X106000Y75784D01*
Y50429D02*
X107500Y51929D01*
X106000Y50429D02*
X118429D01*
X81265Y45250D02*
X100821D01*
X118429Y50429D02*
X119000Y51000D01*
X100821Y45250D02*
X106000Y50429D01*
X7593Y42866D02*
X8256Y43528D01*
X35000D02*
Y63000D01*
X34000Y64000D02*
X35000Y63000D01*
D76*
X84957Y75543D02*
X87000Y73500D01*
X43050Y74500D02*
X64750D01*
X65457Y73793D01*
X42300Y73750D02*
X43050Y74500D01*
X65457Y75543D02*
X84957D01*
X42300Y73750D02*
X44093Y75543D01*
X29500Y73750D02*
X42300D01*
M02*
