G04*
G04 #@! TF.GenerationSoftware,Altium Limited,Altium Designer,25.0.2 (28)*
G04*
G04 Layer_Color=8388736*
%FSLAX44Y44*%
%MOMM*%
G71*
G04*
G04 #@! TF.SameCoordinates,86524C76-892E-4E36-895C-82D9F112F233*
G04*
G04*
G04 #@! TF.FilePolarity,Negative*
G04*
G01*
G75*
%ADD13R,0.3500X0.2500*%
%ADD14R,0.3294X0.4048*%
%ADD15R,0.4048X0.3294*%
%ADD21C,0.2000*%
%ADD22R,0.5000X0.2500*%
%ADD23R,0.2752X0.5011*%
%ADD24R,0.3414X0.4974*%
%ADD25R,0.2220X0.5062*%
%ADD26R,0.3373X0.5054*%
%ADD27R,0.2750X0.5000*%
%ADD28R,0.1663X0.1991*%
%ADD29R,0.2500X0.1750*%
%ADD30R,0.1500X0.2500*%
%ADD31R,0.2218X0.2452*%
%ADD32R,0.3250X0.2500*%
%ADD33R,0.1397X0.2508*%
%ADD34R,0.2750X0.2500*%
%ADD35R,0.2500X0.3500*%
%ADD36R,0.2250X0.2500*%
%ADD37R,0.2250X0.3500*%
%ADD38R,0.3750X0.2500*%
%ADD39R,0.3500X0.2500*%
%ADD40R,0.3000X0.3500*%
%ADD41R,0.2500X0.2500*%
%ADD42R,0.2500X0.2000*%
%ADD43R,0.2500X0.3000*%
%ADD44R,0.2500X0.2750*%
%ADD45R,0.3500X0.3250*%
%ADD46R,0.3500X0.3500*%
%ADD47R,0.3543X0.2524*%
%ADD48R,0.3000X0.2500*%
%ADD49R,0.2500X0.2500*%
%ADD50R,0.2750X0.2500*%
%ADD51R,0.2250X0.3500*%
%ADD52R,0.2750X0.3500*%
%ADD53R,0.1750X0.2500*%
%ADD54R,0.2750X0.3500*%
%ADD55R,0.3500X0.3500*%
%ADD56R,0.3600X0.2600*%
%ADD57R,0.2600X0.3600*%
%ADD58R,0.5100X0.3100*%
%ADD59R,0.3100X0.5100*%
%ADD60R,0.7100X0.2100*%
%ADD61R,0.9600X0.9600*%
%ADD62C,0.0100*%
%ADD63C,1.1430*%
G04:AMPARAMS|DCode=64|XSize=1.143mm|YSize=1.143mm|CornerRadius=0.2858mm|HoleSize=0mm|Usage=FLASHONLY|Rotation=270.000|XOffset=0mm|YOffset=0mm|HoleType=Round|Shape=RoundedRectangle|*
%AMROUNDEDRECTD64*
21,1,1.1430,0.5715,0,0,270.0*
21,1,0.5715,1.1430,0,0,270.0*
1,1,0.5715,-0.2858,-0.2858*
1,1,0.5715,-0.2858,0.2858*
1,1,0.5715,0.2858,0.2858*
1,1,0.5715,0.2858,-0.2858*
%
%ADD64ROUNDEDRECTD64*%
%ADD65R,1.1430X1.1430*%
G04:AMPARAMS|DCode=66|XSize=1.143mm|YSize=1.143mm|CornerRadius=0.2858mm|HoleSize=0mm|Usage=FLASHONLY|Rotation=180.000|XOffset=0mm|YOffset=0mm|HoleType=Round|Shape=RoundedRectangle|*
%AMROUNDEDRECTD66*
21,1,1.1430,0.5715,0,0,180.0*
21,1,0.5715,1.1430,0,0,180.0*
1,1,0.5715,-0.2858,0.2858*
1,1,0.5715,0.2858,0.2858*
1,1,0.5715,0.2858,-0.2858*
1,1,0.5715,-0.2858,-0.2858*
%
%ADD66ROUNDEDRECTD66*%
%ADD67R,1.1430X1.1430*%
D13*
X36250Y28500D02*
D03*
X89750D02*
D03*
D14*
X22998Y73507D02*
D03*
X27999D02*
D03*
X33001D02*
D03*
X38002D02*
D03*
Y88493D02*
D03*
X33001D02*
D03*
X27999D02*
D03*
X22998D02*
D03*
X28251Y58743D02*
D03*
X23249D02*
D03*
Y43757D02*
D03*
X28251D02*
D03*
X56499Y96257D02*
D03*
X61500D02*
D03*
Y111243D02*
D03*
X56499D02*
D03*
X93999Y96257D02*
D03*
X99000D02*
D03*
Y111243D02*
D03*
X93999D02*
D03*
X65751Y58743D02*
D03*
X60749D02*
D03*
Y43757D02*
D03*
X65751D02*
D03*
X103251Y58743D02*
D03*
X98249D02*
D03*
Y43757D02*
D03*
X103251D02*
D03*
D15*
X37993Y78499D02*
D03*
Y83501D02*
D03*
X23007D02*
D03*
Y78499D02*
D03*
X33243Y43748D02*
D03*
Y48749D02*
D03*
Y53751D02*
D03*
Y58752D02*
D03*
X18257D02*
D03*
Y53751D02*
D03*
Y48749D02*
D03*
Y43748D02*
D03*
X51506Y111252D02*
D03*
Y106251D02*
D03*
Y101249D02*
D03*
Y96248D02*
D03*
X66492D02*
D03*
Y101249D02*
D03*
Y106251D02*
D03*
Y111252D02*
D03*
X89006D02*
D03*
Y106251D02*
D03*
Y101249D02*
D03*
Y96248D02*
D03*
X103992D02*
D03*
Y101249D02*
D03*
Y106251D02*
D03*
Y111252D02*
D03*
X70743Y43748D02*
D03*
Y48749D02*
D03*
Y53751D02*
D03*
Y58752D02*
D03*
X55757D02*
D03*
Y53751D02*
D03*
Y48749D02*
D03*
Y43748D02*
D03*
X108243D02*
D03*
Y48749D02*
D03*
Y53751D02*
D03*
Y58752D02*
D03*
X93257D02*
D03*
Y53751D02*
D03*
Y48749D02*
D03*
Y43748D02*
D03*
D21*
X115500Y140000D02*
G03*
X115500Y140000I-500J0D01*
G01*
X163500Y23000D02*
G03*
X163500Y23000I-500J0D01*
G01*
X20500Y125000D02*
G03*
X20500Y125000I-500J0D01*
G01*
X180500Y160000D02*
G03*
X180500Y160000I-500J0D01*
G01*
X185000Y10000D02*
G03*
X185000Y10000I-500J0D01*
G01*
D22*
X6500Y81000D02*
D03*
D23*
X25876Y27255D02*
D03*
D24*
X59043Y127763D02*
D03*
D25*
X96390Y127719D02*
D03*
D26*
X63436Y27277D02*
D03*
D27*
X100875Y27250D02*
D03*
D28*
X35034Y66923D02*
D03*
D29*
X7750Y69875D02*
D03*
D30*
X111750Y28500D02*
D03*
X85500Y55750D02*
D03*
D31*
X74891Y99274D02*
D03*
D32*
X74125Y104750D02*
D03*
Y28500D02*
D03*
D33*
X112051Y99246D02*
D03*
D34*
X111625Y104750D02*
D03*
X52125Y28500D02*
D03*
D35*
X100750Y116750D02*
D03*
X67500Y38250D02*
D03*
D36*
X107125Y126500D02*
D03*
D37*
X92375Y116750D02*
D03*
X54375D02*
D03*
D38*
X85625Y126500D02*
D03*
D39*
X69500D02*
D03*
D40*
X63250Y116750D02*
D03*
D41*
X48000Y126500D02*
D03*
D42*
X35000Y96500D02*
D03*
D43*
X29500D02*
D03*
D44*
X7750Y92375D02*
D03*
D45*
X17500Y85125D02*
D03*
D46*
Y76500D02*
D03*
D47*
X47978Y50238D02*
D03*
D48*
X48000Y55750D02*
D03*
X10750Y50250D02*
D03*
D49*
X10500Y55750D02*
D03*
D50*
X14625Y28500D02*
D03*
D51*
X21375Y38250D02*
D03*
X58875D02*
D03*
D52*
X30125D02*
D03*
D53*
X85625Y50250D02*
D03*
D54*
X96375Y38250D02*
D03*
D55*
X105250D02*
D03*
D56*
X114000Y64000D02*
D03*
Y69500D02*
D03*
Y75000D02*
D03*
Y91000D02*
D03*
Y85500D02*
D03*
Y80000D02*
D03*
X45500Y107250D02*
D03*
Y101750D02*
D03*
X83000D02*
D03*
Y107250D02*
D03*
X76254Y48267D02*
D03*
Y53766D02*
D03*
X114000Y48250D02*
D03*
Y53750D02*
D03*
X12500Y83750D02*
D03*
Y89250D02*
D03*
Y78250D02*
D03*
Y72750D02*
D03*
X17500Y92500D02*
D03*
Y87000D02*
D03*
Y69500D02*
D03*
Y75000D02*
D03*
X119000D02*
D03*
Y69500D02*
D03*
X119000Y105750D02*
D03*
Y100250D02*
D03*
X119000Y91000D02*
D03*
Y85500D02*
D03*
X12500Y41000D02*
D03*
Y46500D02*
D03*
X72249Y114000D02*
D03*
Y108500D02*
D03*
X109749Y114000D02*
D03*
Y108500D02*
D03*
X50000Y41000D02*
D03*
Y46500D02*
D03*
X87500Y41000D02*
D03*
Y46500D02*
D03*
X12500Y55750D02*
D03*
Y50250D02*
D03*
X72249Y99250D02*
D03*
Y104750D02*
D03*
X109749Y99250D02*
D03*
Y104750D02*
D03*
X50000Y55750D02*
D03*
Y50250D02*
D03*
X87500Y55750D02*
D03*
Y50250D02*
D03*
X8499Y50243D02*
D03*
Y55743D02*
D03*
X76250Y104757D02*
D03*
Y99257D02*
D03*
X113750Y104757D02*
D03*
Y99257D02*
D03*
X45999Y50243D02*
D03*
Y55743D02*
D03*
X83499Y50243D02*
D03*
Y55743D02*
D03*
X17500Y78250D02*
D03*
Y83750D02*
D03*
X12750Y28500D02*
D03*
Y34000D02*
D03*
D03*
Y28500D02*
D03*
X71999Y126500D02*
D03*
Y121000D02*
D03*
D03*
Y126500D02*
D03*
X109499D02*
D03*
Y121000D02*
D03*
D03*
Y126500D02*
D03*
X50250Y28500D02*
D03*
Y34000D02*
D03*
D03*
Y28500D02*
D03*
X87750D02*
D03*
Y34000D02*
D03*
D03*
Y28500D02*
D03*
X38750D02*
D03*
Y34000D02*
D03*
D03*
Y28500D02*
D03*
X45999Y126500D02*
D03*
Y121000D02*
D03*
D03*
Y126500D02*
D03*
X83499D02*
D03*
Y121000D02*
D03*
D03*
Y126500D02*
D03*
X76250Y28500D02*
D03*
Y34000D02*
D03*
D03*
Y28500D02*
D03*
X113750D02*
D03*
Y34000D02*
D03*
D03*
Y28500D02*
D03*
D57*
X29065Y68512D02*
D03*
X34565D02*
D03*
X41000Y64459D02*
D03*
X35500D02*
D03*
X23000Y33250D02*
D03*
X17500D02*
D03*
X61749Y121750D02*
D03*
X67249D02*
D03*
X99249D02*
D03*
X104749D02*
D03*
X60500Y33250D02*
D03*
X55000D02*
D03*
X98000D02*
D03*
X92500D02*
D03*
X28500D02*
D03*
X34000D02*
D03*
X56249Y121750D02*
D03*
X50749D02*
D03*
X93749D02*
D03*
X88249D02*
D03*
X66000Y33250D02*
D03*
X71500D02*
D03*
X103500D02*
D03*
X109000D02*
D03*
X14250Y38250D02*
D03*
X19750D02*
D03*
X70499Y116750D02*
D03*
X64999D02*
D03*
X107999D02*
D03*
X102499D02*
D03*
X51750Y38250D02*
D03*
X57250D02*
D03*
X89250D02*
D03*
X94750D02*
D03*
X37250D02*
D03*
X31750D02*
D03*
X47499Y116750D02*
D03*
X52999D02*
D03*
X84999D02*
D03*
X90499D02*
D03*
X74750Y38250D02*
D03*
X69250D02*
D03*
X112250D02*
D03*
X106750D02*
D03*
X20250Y94250D02*
D03*
X25750D02*
D03*
X35000D02*
D03*
X29500D02*
D03*
X29493Y98251D02*
D03*
X34993D02*
D03*
X28500Y38250D02*
D03*
X23000D02*
D03*
X56249Y116750D02*
D03*
X61749D02*
D03*
X93749D02*
D03*
X99249D02*
D03*
X66000Y38250D02*
D03*
X60500D02*
D03*
X103500D02*
D03*
X98000D02*
D03*
X7750Y94000D02*
D03*
X13250D02*
D03*
D03*
X7750D02*
D03*
Y68000D02*
D03*
X13250D02*
D03*
D03*
X7750D02*
D03*
D58*
X6500Y90000D02*
D03*
Y83000D02*
D03*
Y79000D02*
D03*
Y72000D02*
D03*
D59*
X16750Y27250D02*
D03*
X23750D02*
D03*
X67999Y127750D02*
D03*
X60999D02*
D03*
X105499D02*
D03*
X98499D02*
D03*
X54250Y27250D02*
D03*
X61250D02*
D03*
X91750D02*
D03*
X98750D02*
D03*
X27750D02*
D03*
X34750D02*
D03*
X56999Y127750D02*
D03*
X49999D02*
D03*
X94499D02*
D03*
X87499D02*
D03*
X65250Y27250D02*
D03*
X72250D02*
D03*
X102750D02*
D03*
X109750D02*
D03*
D60*
X126000Y47000D02*
D03*
Y43000D02*
D03*
Y55000D02*
D03*
Y51000D02*
D03*
Y35000D02*
D03*
Y39000D02*
D03*
Y79000D02*
D03*
Y75000D02*
D03*
Y87000D02*
D03*
Y83000D02*
D03*
Y63000D02*
D03*
Y59000D02*
D03*
Y71000D02*
D03*
Y67000D02*
D03*
X156000Y47000D02*
D03*
Y43000D02*
D03*
Y55000D02*
D03*
Y51000D02*
D03*
Y35000D02*
D03*
Y39000D02*
D03*
Y83000D02*
D03*
Y79000D02*
D03*
Y87000D02*
D03*
Y63000D02*
D03*
Y59000D02*
D03*
Y75000D02*
D03*
Y67000D02*
D03*
Y71000D02*
D03*
X126000Y103000D02*
D03*
Y99000D02*
D03*
Y111000D02*
D03*
Y107000D02*
D03*
Y91000D02*
D03*
X156000D02*
D03*
X126000Y95000D02*
D03*
X156000D02*
D03*
Y99000D02*
D03*
X126000Y123000D02*
D03*
Y119000D02*
D03*
Y131000D02*
D03*
Y127000D02*
D03*
Y115000D02*
D03*
X156000Y127000D02*
D03*
Y131000D02*
D03*
Y115000D02*
D03*
Y111000D02*
D03*
Y123000D02*
D03*
Y119000D02*
D03*
Y107000D02*
D03*
Y103000D02*
D03*
D61*
X127000Y26000D02*
D03*
X155000D02*
D03*
X127000Y140000D02*
D03*
X155000D02*
D03*
D62*
X28000Y117000D02*
D03*
Y130000D02*
D03*
D63*
X186750Y68150D02*
D03*
Y80850D02*
D03*
Y55450D02*
D03*
Y93550D02*
D03*
Y118950D02*
D03*
Y30050D02*
D03*
X47850Y8750D02*
D03*
X73250D02*
D03*
X9750D02*
D03*
X35150D02*
D03*
X85950D02*
D03*
X111350D02*
D03*
X48350Y157250D02*
D03*
X73750D02*
D03*
X10250D02*
D03*
X35650D02*
D03*
X86450D02*
D03*
X111850D02*
D03*
X137250D02*
D03*
X149950D02*
D03*
X136750Y8750D02*
D03*
X149450D02*
D03*
D64*
X186750Y131650D02*
D03*
Y106250D02*
D03*
Y42750D02*
D03*
D65*
Y144350D02*
D03*
D66*
X60550Y8750D02*
D03*
X22450D02*
D03*
X98650D02*
D03*
X61050Y157250D02*
D03*
X22950D02*
D03*
X99150D02*
D03*
D67*
X124050Y8750D02*
D03*
X124550Y157250D02*
D03*
X162650D02*
D03*
X162150Y8750D02*
D03*
M02*
