G04*
G04 #@! TF.GenerationSoftware,Altium Limited,Altium Designer,23.11.1 (41)*
G04*
G04 Layer_Physical_Order=5*
G04 Layer_Color=16737945*
%FSLAX44Y44*%
%MOMM*%
G71*
G04*
G04 #@! TF.SameCoordinates,860607A7-82FE-4F03-8345-F0151ACF9F54*
G04*
G04*
G04 #@! TF.FilePolarity,Positive*
G04*
G01*
G75*
G04:AMPARAMS|DCode=64|XSize=1.143mm|YSize=1.143mm|CornerRadius=0.2858mm|HoleSize=0mm|Usage=FLASHONLY|Rotation=270.000|XOffset=0mm|YOffset=0mm|HoleType=Round|Shape=RoundedRectangle|*
%AMROUNDEDRECTD64*
21,1,1.1430,0.5715,0,0,270.0*
21,1,0.5715,1.1430,0,0,270.0*
1,1,0.5715,-0.2858,-0.2858*
1,1,0.5715,-0.2858,0.2858*
1,1,0.5715,0.2858,0.2858*
1,1,0.5715,0.2858,-0.2858*
%
%ADD64ROUNDEDRECTD64*%
G04:AMPARAMS|DCode=66|XSize=1.143mm|YSize=1.143mm|CornerRadius=0.2858mm|HoleSize=0mm|Usage=FLASHONLY|Rotation=180.000|XOffset=0mm|YOffset=0mm|HoleType=Round|Shape=RoundedRectangle|*
%AMROUNDEDRECTD66*
21,1,1.1430,0.5715,0,0,180.0*
21,1,0.5715,1.1430,0,0,180.0*
1,1,0.5715,-0.2858,0.2858*
1,1,0.5715,0.2858,0.2858*
1,1,0.5715,0.2858,-0.2858*
1,1,0.5715,-0.2858,-0.2858*
%
%ADD66ROUNDEDRECTD66*%
%ADD67R,1.1430X1.1430*%
%ADD73C,0.4000*%
G36*
X185410Y162551D02*
X187350Y161748D01*
X189096Y160581D01*
X190581Y159096D01*
X191748Y157350D01*
X192551Y155410D01*
X192961Y153350D01*
Y148354D01*
X192581Y148152D01*
X191691Y147965D01*
X190177Y149479D01*
X187954Y150400D01*
X185547D01*
X183323Y149479D01*
X181621Y147777D01*
X180700Y145553D01*
Y143146D01*
X181621Y140923D01*
X182563Y139981D01*
X182194Y138616D01*
X182159Y138589D01*
X180751Y137649D01*
X179788Y136207D01*
X179450Y134507D01*
Y133150D01*
X186750D01*
Y130150D01*
X179450D01*
Y128792D01*
X179788Y127092D01*
X180751Y125651D01*
X182159Y124710D01*
X182194Y124684D01*
X182563Y123319D01*
X181621Y122377D01*
X180700Y120153D01*
Y117746D01*
X181621Y115523D01*
X182563Y114581D01*
X182194Y113216D01*
X182159Y113189D01*
X180751Y112249D01*
X179788Y110807D01*
X179450Y109107D01*
Y107750D01*
X186750D01*
Y104750D01*
X179450D01*
Y103392D01*
X179788Y101692D01*
X180751Y100251D01*
X182159Y99310D01*
X182194Y99284D01*
X182563Y97919D01*
X181621Y96977D01*
X180700Y94753D01*
Y92346D01*
X181621Y90123D01*
X183323Y88421D01*
X184612Y87887D01*
Y86512D01*
X183323Y85979D01*
X181621Y84277D01*
X180700Y82053D01*
Y79646D01*
X181621Y77423D01*
X183323Y75721D01*
X184612Y75187D01*
Y73812D01*
X183323Y73279D01*
X181621Y71577D01*
X180700Y69353D01*
Y66946D01*
X181621Y64723D01*
X183323Y63021D01*
X184612Y62487D01*
Y61112D01*
X183323Y60579D01*
X181621Y58877D01*
X180700Y56653D01*
Y54246D01*
X181621Y52023D01*
X182563Y51081D01*
X182194Y49716D01*
X182159Y49689D01*
X180751Y48749D01*
X179788Y47307D01*
X179450Y45607D01*
Y44250D01*
X186750D01*
Y41250D01*
X179450D01*
Y39892D01*
X179788Y38192D01*
X180751Y36751D01*
X182159Y35810D01*
X182194Y35784D01*
X182563Y34419D01*
X181621Y33477D01*
X180700Y31253D01*
Y28846D01*
X181621Y26623D01*
X183323Y24921D01*
X185547Y24000D01*
X187954D01*
X190177Y24921D01*
X191691Y26434D01*
X192581Y26248D01*
X192961Y26045D01*
Y11650D01*
X192551Y9590D01*
X191747Y7650D01*
X190581Y5904D01*
X189096Y4419D01*
X187350Y3252D01*
X185410Y2449D01*
X183350Y2039D01*
X165076D01*
X164823Y3309D01*
X165577Y3621D01*
X167279Y5323D01*
X168200Y7547D01*
Y9954D01*
X167279Y12177D01*
X165577Y13879D01*
X163353Y14800D01*
X160947D01*
X158723Y13879D01*
X157021Y12177D01*
X156487Y10889D01*
X155113D01*
X154579Y12177D01*
X152877Y13879D01*
X150653Y14800D01*
X148246D01*
X146023Y13879D01*
X144321Y12177D01*
X143787Y10889D01*
X142413D01*
X141879Y12177D01*
X140177Y13879D01*
X137953Y14800D01*
X135547D01*
X133323Y13879D01*
X132535Y13091D01*
X131265Y13617D01*
Y15965D01*
X125550D01*
Y8750D01*
X122550D01*
Y16193D01*
X122389Y16421D01*
X122057Y17235D01*
X122500Y18304D01*
Y19696D01*
X121967Y20983D01*
X120983Y21967D01*
X119696Y22500D01*
X118304D01*
X117017Y21967D01*
X116033Y20983D01*
X115500Y19696D01*
Y18304D01*
X116033Y17017D01*
X116114Y16936D01*
X116835Y15965D01*
Y13308D01*
X115348D01*
X114777Y13879D01*
X112553Y14800D01*
X110147D01*
X107923Y13879D01*
X107352Y13308D01*
X105612D01*
X104649Y14749D01*
X103208Y15712D01*
X101507Y16050D01*
X100150D01*
Y8750D01*
X97150D01*
Y16050D01*
X95792D01*
X94092Y15712D01*
X92651Y14749D01*
X92521Y14555D01*
X91680Y13633D01*
X89623D01*
X89377Y13879D01*
X87153Y14800D01*
X84747D01*
X82523Y13879D01*
X82277Y13633D01*
X76923D01*
X76677Y13879D01*
X74453Y14800D01*
X72046D01*
X69823Y13879D01*
X69577Y13633D01*
X67750D01*
X66792Y14386D01*
X66549Y14749D01*
X65108Y15712D01*
X63407Y16050D01*
X62050D01*
Y8750D01*
X59050D01*
Y16050D01*
X57692D01*
X55992Y15712D01*
X54551Y14749D01*
X54218Y14251D01*
X53430Y13308D01*
X51848D01*
X51277Y13879D01*
X49053Y14800D01*
X46646D01*
X44423Y13879D01*
X43852Y13308D01*
X39148D01*
X38577Y13879D01*
X36353Y14800D01*
X33946D01*
X31723Y13879D01*
X31152Y13308D01*
X29500D01*
X28767Y14274D01*
X28449Y14749D01*
X27008Y15712D01*
X25307Y16050D01*
X23950D01*
Y8750D01*
X20950D01*
Y16050D01*
X19592D01*
X17892Y15712D01*
X16451Y14749D01*
X15488Y13308D01*
X13748D01*
X13177Y13879D01*
X10953Y14800D01*
X8547D01*
X6323Y13879D01*
X5752Y13308D01*
X2039D01*
Y31702D01*
X3163Y31987D01*
X3309Y31991D01*
X4267Y31033D01*
X5554Y30500D01*
X6946D01*
X8233Y31033D01*
X9217Y32017D01*
X9750Y33304D01*
Y34696D01*
X9217Y35983D01*
X8233Y36967D01*
X6946Y37500D01*
X5554D01*
X4267Y36967D01*
X3309Y36009D01*
X3163Y36013D01*
X2039Y36298D01*
Y63464D01*
X3309Y64312D01*
X3635Y64177D01*
X5027D01*
X6314Y64710D01*
X7298Y65695D01*
X7831Y66981D01*
Y68373D01*
X7298Y69660D01*
X6314Y70644D01*
X5027Y71177D01*
X3635D01*
X3309Y71042D01*
X2039Y71891D01*
Y104314D01*
X3309Y104567D01*
X3409Y104326D01*
X4393Y103342D01*
X5680Y102809D01*
X7072D01*
X8359Y103342D01*
X9343Y104326D01*
X9876Y105613D01*
Y107005D01*
X9343Y108291D01*
X8359Y109276D01*
X7072Y109809D01*
X5680D01*
X4393Y109276D01*
X3409Y108291D01*
X3309Y108051D01*
X2039Y108303D01*
Y118825D01*
X2390Y119949D01*
X12228D01*
Y129892D01*
X13459D01*
Y139983D01*
X12228D01*
Y141949D01*
X2390D01*
X2039Y143074D01*
Y150671D01*
X2500Y151750D01*
X7719D01*
X9047Y151200D01*
X11453D01*
X12781Y151750D01*
X15988D01*
X17029Y151199D01*
X18392Y150288D01*
X20092Y149950D01*
X21450D01*
Y157250D01*
X24450D01*
Y149950D01*
X25807D01*
X27508Y150288D01*
X28893Y151214D01*
X30000Y151692D01*
X30000Y151692D01*
X30000Y151692D01*
X33258D01*
X34447Y151200D01*
X36853D01*
X38042Y151692D01*
X45958D01*
X47147Y151200D01*
X49553D01*
X50742Y151692D01*
X53930D01*
X53930Y151692D01*
Y151692D01*
X55046Y151259D01*
X55051Y151251D01*
X56492Y150288D01*
X58193Y149950D01*
X59550D01*
Y157250D01*
X62550D01*
Y149950D01*
X63907D01*
X65608Y150288D01*
X66942Y151180D01*
X68000Y151692D01*
X71358D01*
X72547Y151200D01*
X74953D01*
X76142Y151692D01*
X84058D01*
X85247Y151200D01*
X87653D01*
X88842Y151692D01*
X91930D01*
X91930Y151692D01*
Y151692D01*
X93094Y151336D01*
X93151Y151251D01*
X94592Y150288D01*
X96292Y149950D01*
X97650D01*
Y157250D01*
X100650D01*
Y149950D01*
X102008D01*
X103708Y150288D01*
X105149Y151251D01*
X105424Y151662D01*
X109532D01*
X110647Y151200D01*
X113053D01*
X114169Y151662D01*
X117335D01*
Y150035D01*
X123050D01*
Y157250D01*
X126050D01*
Y150035D01*
X131765D01*
Y152383D01*
X133035Y152909D01*
X133823Y152121D01*
X136047Y151200D01*
X138453D01*
X140677Y152121D01*
X142379Y153823D01*
X142913Y155112D01*
X144287D01*
X144821Y153823D01*
X146523Y152121D01*
X148747Y151200D01*
X151153D01*
X153377Y152121D01*
X155079Y153823D01*
X155613Y155112D01*
X156987D01*
X157521Y153823D01*
X159223Y152121D01*
X161447Y151200D01*
X163853D01*
X166077Y152121D01*
X167779Y153823D01*
X168700Y156047D01*
Y158453D01*
X167779Y160677D01*
X166765Y161691D01*
X167291Y162961D01*
X183350D01*
X185410Y162551D01*
D02*
G37*
G36*
X8401Y137474D02*
X8493Y137466D01*
X8593Y137449D01*
X8709Y137433D01*
X8843Y137408D01*
X8976Y137374D01*
X9126Y137333D01*
X9276Y137283D01*
X9426Y137224D01*
X9576Y137158D01*
X9734Y137074D01*
X9884Y136983D01*
X10026Y136874D01*
X10034Y136866D01*
X10067Y136841D01*
X10109Y136799D01*
X10167Y136741D01*
X10242Y136666D01*
X10317Y136574D01*
X10409Y136466D01*
X10492Y136341D01*
X10576Y136208D01*
X10667Y136058D01*
X10742Y135891D01*
X10809Y135708D01*
X10876Y135516D01*
X10917Y135308D01*
X10951Y135091D01*
X10959Y134858D01*
Y134758D01*
X10951Y134683D01*
X10942Y134592D01*
X10926Y134492D01*
X10909Y134375D01*
X10884Y134250D01*
X10859Y134117D01*
X10817Y133975D01*
X10767Y133834D01*
X10709Y133692D01*
X10642Y133550D01*
X10567Y133409D01*
X10476Y133275D01*
X10376Y133142D01*
X10367Y133134D01*
X10351Y133117D01*
X10317Y133084D01*
X10267Y133042D01*
X10209Y132984D01*
X10142Y132925D01*
X10059Y132867D01*
X9959Y132800D01*
X9859Y132734D01*
X9743Y132667D01*
X9609Y132609D01*
X9476Y132550D01*
X9326Y132492D01*
X9168Y132451D01*
X8993Y132417D01*
X8818Y132392D01*
X8743Y133384D01*
X8751D01*
X8776Y133392D01*
X8809Y133400D01*
X8859Y133409D01*
X8918Y133417D01*
X8993Y133442D01*
X9151Y133484D01*
X9326Y133550D01*
X9509Y133642D01*
X9676Y133750D01*
X9751Y133817D01*
X9826Y133883D01*
Y133892D01*
X9843Y133900D01*
X9859Y133925D01*
X9884Y133959D01*
X9942Y134042D01*
X10001Y134158D01*
X10067Y134300D01*
X10126Y134467D01*
X10167Y134650D01*
X10176Y134750D01*
X10184Y134858D01*
Y134925D01*
X10176Y134975D01*
X10167Y135033D01*
X10159Y135100D01*
X10117Y135258D01*
X10059Y135441D01*
X10017Y135533D01*
X9967Y135633D01*
X9909Y135733D01*
X9843Y135825D01*
X9768Y135916D01*
X9676Y136008D01*
X9668Y136016D01*
X9651Y136025D01*
X9626Y136050D01*
X9584Y136083D01*
X9526Y136116D01*
X9468Y136158D01*
X9393Y136200D01*
X9309Y136250D01*
X9218Y136291D01*
X9118Y136333D01*
X9001Y136375D01*
X8884Y136408D01*
X8751Y136441D01*
X8609Y136466D01*
X8468Y136475D01*
X8310Y136483D01*
X8301D01*
X8276D01*
X8235D01*
X8176Y136475D01*
X8110Y136466D01*
X8026Y136458D01*
X7943Y136441D01*
X7843Y136425D01*
X7643Y136375D01*
X7426Y136291D01*
X7326Y136241D01*
X7226Y136175D01*
X7127Y136108D01*
X7035Y136025D01*
X7027Y136016D01*
X7018Y136008D01*
X6993Y135975D01*
X6960Y135941D01*
X6927Y135900D01*
X6885Y135841D01*
X6843Y135783D01*
X6793Y135708D01*
X6752Y135625D01*
X6710Y135541D01*
X6635Y135333D01*
X6602Y135225D01*
X6577Y135100D01*
X6568Y134975D01*
X6560Y134842D01*
Y134767D01*
X6568Y134675D01*
X6585Y134567D01*
X6610Y134433D01*
X6652Y134292D01*
X6702Y134150D01*
X6777Y134008D01*
X6785Y133992D01*
X6810Y133950D01*
X6860Y133883D01*
X6918Y133800D01*
X7002Y133717D01*
X7093Y133617D01*
X7201Y133525D01*
X7318Y133442D01*
X7193Y132559D01*
X3244Y133300D01*
Y137124D01*
X4144D01*
Y134050D01*
X6210Y133642D01*
X6202Y133650D01*
X6185Y133675D01*
X6169Y133708D01*
X6135Y133758D01*
X6102Y133825D01*
X6060Y133900D01*
X6010Y133983D01*
X5968Y134083D01*
X5927Y134183D01*
X5877Y134300D01*
X5802Y134542D01*
X5769Y134675D01*
X5744Y134808D01*
X5735Y134950D01*
X5727Y135091D01*
Y135133D01*
X5735Y135191D01*
Y135258D01*
X5752Y135341D01*
X5760Y135441D01*
X5785Y135558D01*
X5810Y135675D01*
X5852Y135808D01*
X5893Y135941D01*
X5952Y136083D01*
X6018Y136224D01*
X6102Y136366D01*
X6194Y136508D01*
X6302Y136649D01*
X6427Y136783D01*
X6435Y136791D01*
X6460Y136816D01*
X6502Y136849D01*
X6552Y136891D01*
X6618Y136949D01*
X6710Y137008D01*
X6802Y137066D01*
X6910Y137133D01*
X7035Y137199D01*
X7176Y137258D01*
X7318Y137324D01*
X7485Y137374D01*
X7651Y137416D01*
X7835Y137449D01*
X8026Y137474D01*
X8226Y137483D01*
X8235D01*
X8276D01*
X8326D01*
X8401Y137474D01*
D02*
G37*
%LPC*%
G36*
X87965Y137872D02*
X86573D01*
X85287Y137339D01*
X84302Y136354D01*
X83769Y135068D01*
Y133676D01*
X84302Y132389D01*
X85287Y131405D01*
X86573Y130872D01*
X87965D01*
X89252Y131405D01*
X90236Y132389D01*
X90769Y133676D01*
Y135068D01*
X90236Y136354D01*
X89252Y137339D01*
X87965Y137872D01*
D02*
G37*
G36*
X106696Y137500D02*
X105304D01*
X104017Y136967D01*
X103033Y135983D01*
X102500Y134696D01*
Y133304D01*
X103033Y132017D01*
X104017Y131033D01*
X105304Y130500D01*
X106696D01*
X107983Y131033D01*
X108967Y132017D01*
X109500Y133304D01*
Y134696D01*
X108967Y135983D01*
X107983Y136967D01*
X106696Y137500D01*
D02*
G37*
G36*
X55171Y136570D02*
X53779D01*
X52492Y136037D01*
X51508Y135052D01*
X50975Y133766D01*
Y132373D01*
X51508Y131087D01*
X52492Y130102D01*
X53779Y129570D01*
X55171D01*
X56457Y130102D01*
X57442Y131087D01*
X57975Y132373D01*
Y133766D01*
X57442Y135052D01*
X56457Y136037D01*
X55171Y136570D01*
D02*
G37*
G36*
X163696Y136500D02*
X162304D01*
X161017Y135967D01*
X160033Y134983D01*
X159500Y133696D01*
Y132304D01*
X160033Y131017D01*
X161017Y130033D01*
X162304Y129500D01*
X163696D01*
X164983Y130033D01*
X165967Y131017D01*
X166500Y132304D01*
Y133696D01*
X165967Y134983D01*
X164983Y135967D01*
X163696Y136500D01*
D02*
G37*
G36*
X66196D02*
X64804D01*
X63517Y135967D01*
X62533Y134983D01*
X62000Y133696D01*
Y132304D01*
X62533Y131017D01*
X63517Y130033D01*
X64804Y129500D01*
X66196D01*
X67483Y130033D01*
X68467Y131017D01*
X69000Y132304D01*
Y133696D01*
X68467Y134983D01*
X67483Y135967D01*
X66196Y136500D01*
D02*
G37*
G36*
X133696Y132500D02*
X132304D01*
X131017Y131967D01*
X130033Y130983D01*
X129500Y129696D01*
Y128304D01*
X130033Y127017D01*
X131017Y126033D01*
X132304Y125500D01*
X133696D01*
X134983Y126033D01*
X135967Y127017D01*
X136500Y128304D01*
Y129696D01*
X135967Y130983D01*
X134983Y131967D01*
X133696Y132500D01*
D02*
G37*
G36*
X140696Y125500D02*
X139304D01*
X138017Y124967D01*
X137033Y123983D01*
X136500Y122696D01*
Y121304D01*
X137033Y120017D01*
X138017Y119033D01*
X139304Y118500D01*
X140696D01*
X141983Y119033D01*
X142967Y120017D01*
X143500Y121304D01*
Y122696D01*
X142967Y123983D01*
X141983Y124967D01*
X140696Y125500D01*
D02*
G37*
G36*
X84946Y115500D02*
X83553D01*
X82267Y114967D01*
X81282Y113983D01*
X79967D01*
X78983Y114967D01*
X77696Y115500D01*
X76304D01*
X75017Y114967D01*
X74033Y113983D01*
X73500Y112696D01*
Y111304D01*
X74033Y110017D01*
X75017Y109033D01*
X75692Y108753D01*
X75500Y108290D01*
Y106898D01*
X76033Y105611D01*
X77017Y104627D01*
X78304Y104094D01*
X79696D01*
X80983Y104627D01*
X81967Y105611D01*
X82500Y106898D01*
Y107562D01*
X83523Y108473D01*
X83673Y108500D01*
X84946D01*
X86232Y109033D01*
X87217Y110017D01*
X87749Y111304D01*
Y112696D01*
X87217Y113983D01*
X86232Y114967D01*
X84946Y115500D01*
D02*
G37*
G36*
X28922Y137000D02*
X27078D01*
X25298Y136523D01*
X23702Y135601D01*
X22399Y134298D01*
X21477Y132702D01*
X21000Y130922D01*
Y129079D01*
X21477Y127298D01*
X22399Y125702D01*
X23702Y124399D01*
X24158Y124135D01*
Y122865D01*
X23702Y122601D01*
X22399Y121298D01*
X21477Y119702D01*
X21000Y117922D01*
Y116079D01*
X21477Y114298D01*
X22399Y112702D01*
X23702Y111399D01*
X25298Y110477D01*
X27078Y110000D01*
X28922D01*
X30702Y110477D01*
X32298Y111399D01*
X33601Y112702D01*
X34523Y114298D01*
X35000Y116079D01*
Y117922D01*
X34523Y119702D01*
X33601Y121298D01*
X32298Y122601D01*
X31841Y122865D01*
Y124135D01*
X32298Y124399D01*
X33601Y125702D01*
X34523Y127298D01*
X35000Y129079D01*
Y130922D01*
X34523Y132702D01*
X33601Y134298D01*
X32298Y135601D01*
X30702Y136523D01*
X28922Y137000D01*
D02*
G37*
G36*
X170696Y118500D02*
X169304D01*
X168017Y117967D01*
X167033Y116983D01*
X166500Y115696D01*
Y114304D01*
X167033Y113017D01*
X168017Y112033D01*
X168885Y111673D01*
Y110327D01*
X168017Y109967D01*
X167033Y108983D01*
X166928Y108729D01*
X165456Y108494D01*
X164983Y108967D01*
X163696Y109500D01*
X162304D01*
X161017Y108967D01*
X160033Y107983D01*
X159500Y106696D01*
Y105304D01*
X160033Y104017D01*
X161017Y103033D01*
X162304Y102500D01*
X163696D01*
X164983Y103033D01*
X165967Y104017D01*
X166072Y104271D01*
X167544Y104506D01*
X168017Y104033D01*
X169304Y103500D01*
X170696D01*
X171983Y104033D01*
X172967Y105017D01*
X173500Y106304D01*
Y107696D01*
X172967Y108983D01*
X171983Y109967D01*
X171115Y110327D01*
Y111673D01*
X171983Y112033D01*
X172967Y113017D01*
X173500Y114304D01*
Y115696D01*
X172967Y116983D01*
X171983Y117967D01*
X170696Y118500D01*
D02*
G37*
G36*
X149696D02*
X148304D01*
X147017Y117967D01*
X146033Y116983D01*
X145500Y115696D01*
Y114500D01*
X144304D01*
X143017Y113967D01*
X142033Y112983D01*
X141500Y111696D01*
Y110304D01*
X142033Y109017D01*
X143017Y108033D01*
X144304Y107500D01*
X145696D01*
X146983Y108033D01*
X147967Y109017D01*
X148500Y110304D01*
Y111500D01*
X149696D01*
X150983Y112033D01*
X151967Y113017D01*
X152500Y114304D01*
Y115696D01*
X151967Y116983D01*
X150983Y117967D01*
X149696Y118500D01*
D02*
G37*
G36*
X117877Y117750D02*
X116484D01*
X115198Y117217D01*
X114213Y116233D01*
X113680Y114946D01*
Y113554D01*
X114213Y112267D01*
X115198Y111283D01*
X114686Y110135D01*
X114533Y109983D01*
X114000Y108696D01*
Y107304D01*
X114533Y106017D01*
X115517Y105033D01*
X116804Y104500D01*
X118196D01*
X119483Y105033D01*
X120467Y106017D01*
X121000Y107304D01*
Y108696D01*
X120467Y109983D01*
X119483Y110967D01*
X119995Y112114D01*
X120148Y112267D01*
X120680Y113554D01*
Y114946D01*
X120148Y116233D01*
X119163Y117217D01*
X117877Y117750D01*
D02*
G37*
G36*
X39696Y111500D02*
X38304D01*
X37017Y110967D01*
X36033Y109983D01*
X35500Y108696D01*
Y107304D01*
X36033Y106017D01*
X37017Y105033D01*
X38304Y104500D01*
X39696D01*
X40983Y105033D01*
X41967Y106017D01*
X42500Y107304D01*
Y108696D01*
X41967Y109983D01*
X40983Y110967D01*
X39696Y111500D01*
D02*
G37*
G36*
X27946Y103750D02*
X26554D01*
X25267Y103217D01*
X24283Y102233D01*
X23044Y102561D01*
X22812Y102657D01*
X21419D01*
X20133Y102124D01*
X19149Y101139D01*
X18616Y99853D01*
Y98460D01*
X19149Y97174D01*
X20133Y96189D01*
X21419Y95657D01*
X22812D01*
X24098Y96189D01*
X25083Y97174D01*
X26289Y96860D01*
X26554Y96750D01*
X27946D01*
X29233Y97283D01*
X30217Y98267D01*
X30750Y99554D01*
Y100946D01*
X30217Y102233D01*
X29233Y103217D01*
X27946Y103750D01*
D02*
G37*
G36*
X12696Y103500D02*
X11304D01*
X10017Y102967D01*
X9033Y101983D01*
X8500Y100696D01*
Y99304D01*
X9033Y98017D01*
X10017Y97033D01*
X11304Y96500D01*
X12696D01*
X13983Y97033D01*
X14967Y98017D01*
X15500Y99304D01*
Y100696D01*
X14967Y101983D01*
X13983Y102967D01*
X12696Y103500D01*
D02*
G37*
G36*
X133696Y100500D02*
X132304D01*
X131017Y99967D01*
X130033Y98983D01*
X129500Y97696D01*
Y96304D01*
X130033Y95017D01*
X130550Y94500D01*
X130033Y93983D01*
X129500Y92696D01*
Y91304D01*
X130033Y90017D01*
X131017Y89033D01*
X132304Y88500D01*
X133696D01*
X134983Y89033D01*
X135967Y90017D01*
X136334Y90902D01*
X137304Y90500D01*
X138696D01*
X139983Y91033D01*
X140967Y92017D01*
X141500Y93304D01*
Y94696D01*
X140967Y95983D01*
X139983Y96967D01*
X138696Y97500D01*
X137304D01*
X136201Y98418D01*
X135967Y98983D01*
X134983Y99967D01*
X133696Y100500D01*
D02*
G37*
G36*
X149696Y96500D02*
X148304D01*
X147017Y95967D01*
X146033Y94983D01*
X145500Y93696D01*
Y92304D01*
X146033Y91017D01*
X147017Y90033D01*
X148304Y89500D01*
X149696D01*
X150983Y90033D01*
X151967Y91017D01*
X152500Y92304D01*
Y93696D01*
X151967Y94983D01*
X150983Y95967D01*
X149696Y96500D01*
D02*
G37*
G36*
X106696Y88500D02*
X105304D01*
X104017Y87967D01*
X103251Y87201D01*
X102500Y87073D01*
X101749Y87201D01*
X100983Y87967D01*
X99696Y88500D01*
X98304D01*
X97017Y87967D01*
X96033Y86983D01*
X95500Y85696D01*
Y84304D01*
X96033Y83017D01*
X97017Y82033D01*
X98304Y81500D01*
X99696D01*
X100983Y82033D01*
X101749Y82799D01*
X102500Y82927D01*
X103251Y82799D01*
X104017Y82033D01*
X105304Y81500D01*
X106696D01*
X107729Y81928D01*
X107986Y81845D01*
X108512Y81529D01*
X108902Y81157D01*
Y80159D01*
X109435Y78873D01*
X110420Y77888D01*
X111706Y77356D01*
X113098D01*
X114385Y77888D01*
X114616Y78119D01*
X116033Y78017D01*
X117017Y77033D01*
X118304Y76500D01*
X119696D01*
X120983Y77033D01*
X121967Y78017D01*
X122500Y79304D01*
Y80696D01*
X121967Y81983D01*
X120983Y82967D01*
X119696Y83500D01*
X118304D01*
X117017Y82967D01*
X116786Y82736D01*
X115370Y82838D01*
X114385Y83823D01*
X113098Y84356D01*
X111706D01*
X110673Y83928D01*
X110416Y84010D01*
X109890Y84327D01*
X109500Y84699D01*
Y85696D01*
X108967Y86983D01*
X107983Y87967D01*
X106696Y88500D01*
D02*
G37*
G36*
X84696Y93500D02*
X83304D01*
X82017Y92967D01*
X81033Y91983D01*
X80500Y90696D01*
Y89304D01*
X81033Y88017D01*
X82017Y87033D01*
X83304Y86500D01*
X84696D01*
X85983Y87033D01*
X86967Y88017D01*
X87500Y89304D01*
Y90696D01*
X86967Y91983D01*
X85983Y92967D01*
X84696Y93500D01*
D02*
G37*
G36*
X41530Y92977D02*
X40138D01*
X38851Y92444D01*
X37867Y91460D01*
X37334Y90173D01*
Y88781D01*
X37867Y87494D01*
X38851Y86510D01*
X40138Y85977D01*
X41530D01*
X42816Y86510D01*
X43801Y87494D01*
X44334Y88781D01*
Y90173D01*
X43801Y91460D01*
X42816Y92444D01*
X41530Y92977D01*
D02*
G37*
G36*
X67696Y92500D02*
X66304D01*
X65017Y91967D01*
X64033Y90983D01*
X63500Y89696D01*
Y88304D01*
X64033Y87017D01*
X65017Y86033D01*
X66304Y85500D01*
X67696D01*
X68983Y86033D01*
X69967Y87017D01*
X70500Y88304D01*
Y89696D01*
X69967Y90983D01*
X68983Y91967D01*
X67696Y92500D01*
D02*
G37*
G36*
X166630Y94506D02*
X165238D01*
X163951Y93973D01*
X162967Y92989D01*
X162434Y91702D01*
Y90310D01*
X162658Y89770D01*
X162332Y88602D01*
X161971Y88362D01*
X161017Y87967D01*
X160033Y86983D01*
X159500Y85696D01*
Y84304D01*
X160033Y83017D01*
X161017Y82033D01*
X162304Y81500D01*
X163696D01*
X164983Y82033D01*
X165967Y83017D01*
X166500Y84304D01*
Y85696D01*
X166276Y86236D01*
X166602Y87404D01*
X166963Y87644D01*
X167917Y88039D01*
X168901Y89024D01*
X169434Y90310D01*
Y91702D01*
X168901Y92989D01*
X167917Y93973D01*
X166630Y94506D01*
D02*
G37*
G36*
X89696Y85500D02*
X88304D01*
X87017Y84967D01*
X86033Y83983D01*
X85500Y82696D01*
Y81304D01*
X86033Y80017D01*
X87017Y79033D01*
X88304Y78500D01*
X89696D01*
X90983Y79033D01*
X91967Y80017D01*
X92500Y81304D01*
Y82696D01*
X91967Y83983D01*
X90983Y84967D01*
X89696Y85500D01*
D02*
G37*
G36*
X74446Y84750D02*
X73054D01*
X71767Y84217D01*
X70783Y83233D01*
X70250Y81946D01*
Y80554D01*
X70783Y79267D01*
X71767Y78283D01*
X73054Y77750D01*
X74446D01*
X75733Y78283D01*
X76717Y79267D01*
X77250Y80554D01*
Y81946D01*
X76717Y83233D01*
X75733Y84217D01*
X74446Y84750D01*
D02*
G37*
G36*
X145696Y81500D02*
X144304D01*
X143017Y80967D01*
X142033Y79983D01*
X141500Y78696D01*
Y77304D01*
X142033Y76017D01*
X143017Y75033D01*
X144304Y74500D01*
X145696D01*
X146983Y75033D01*
X147967Y76017D01*
X148500Y77304D01*
Y78696D01*
X147967Y79983D01*
X146983Y80967D01*
X145696Y81500D01*
D02*
G37*
G36*
X87696Y77000D02*
X86304D01*
X85017Y76467D01*
X84033Y75483D01*
X83500Y74196D01*
Y72804D01*
X84033Y71517D01*
X85017Y70533D01*
X86304Y70000D01*
X87696D01*
X88983Y70533D01*
X89967Y71517D01*
X90500Y72804D01*
Y74196D01*
X89967Y75483D01*
X88983Y76467D01*
X87696Y77000D01*
D02*
G37*
G36*
X163696Y78500D02*
X162304D01*
X161017Y77967D01*
X160033Y76983D01*
X159500Y75696D01*
Y74304D01*
X160033Y73017D01*
X161017Y72033D01*
X162025Y71616D01*
X162328Y71425D01*
X162721Y70230D01*
X162500Y69696D01*
Y68304D01*
X163033Y67017D01*
X164017Y66033D01*
X165304Y65500D01*
X166696D01*
X167983Y66033D01*
X168967Y67017D01*
X169500Y68304D01*
Y69696D01*
X168967Y70983D01*
X167983Y71967D01*
X166975Y72385D01*
X166672Y72575D01*
X166279Y73770D01*
X166500Y74304D01*
Y75696D01*
X165967Y76983D01*
X164983Y77967D01*
X163696Y78500D01*
D02*
G37*
G36*
X24696Y72500D02*
X23304D01*
X22017Y71967D01*
X21033Y70983D01*
X20500Y69696D01*
Y68304D01*
X21033Y67017D01*
X22017Y66033D01*
X23304Y65500D01*
X24696D01*
X25983Y66033D01*
X26967Y67017D01*
X27500Y68304D01*
Y69696D01*
X26967Y70983D01*
X25983Y71967D01*
X24696Y72500D01*
D02*
G37*
G36*
X79778Y71500D02*
X78386D01*
X77100Y70967D01*
X76115Y69983D01*
X75582Y68696D01*
Y67304D01*
X76115Y66017D01*
X77100Y65033D01*
X78386Y64500D01*
X79778D01*
X81065Y65033D01*
X82049Y66017D01*
X82582Y67304D01*
Y68696D01*
X82049Y69983D01*
X81065Y70967D01*
X79778Y71500D01*
D02*
G37*
G36*
X62274Y70860D02*
X60881D01*
X59595Y70327D01*
X58610Y69342D01*
X58078Y68056D01*
Y66663D01*
X58610Y65377D01*
X59595Y64392D01*
X60881Y63860D01*
X62274D01*
X63560Y64392D01*
X64545Y65377D01*
X65078Y66663D01*
Y68056D01*
X64545Y69342D01*
X63560Y70327D01*
X62274Y70860D01*
D02*
G37*
G36*
X141696Y69500D02*
X140304D01*
X139017Y68967D01*
X138033Y67983D01*
X137500Y66696D01*
Y65304D01*
X138033Y64017D01*
X139017Y63033D01*
X140304Y62500D01*
X141696D01*
X142983Y63033D01*
X143967Y64017D01*
X144500Y65304D01*
Y66696D01*
X143967Y67983D01*
X142983Y68967D01*
X141696Y69500D01*
D02*
G37*
G36*
X95196D02*
X93804D01*
X92517Y68967D01*
X91533Y67983D01*
X91000Y66696D01*
Y65304D01*
X91533Y64017D01*
X92517Y63033D01*
X93804Y62500D01*
X95196D01*
X96483Y63033D01*
X97467Y64017D01*
X98000Y65304D01*
Y66696D01*
X97467Y67983D01*
X96483Y68967D01*
X95196Y69500D01*
D02*
G37*
G36*
X52696Y72500D02*
X51304D01*
X50017Y71967D01*
X49033Y70983D01*
X48500Y69696D01*
Y68304D01*
X49033Y67017D01*
X50017Y66033D01*
X50023Y66030D01*
X50033Y65983D01*
X49500Y64696D01*
Y63304D01*
X50033Y62017D01*
X51017Y61033D01*
X52304Y60500D01*
X53696D01*
X54983Y61033D01*
X55967Y62017D01*
X56500Y63304D01*
Y64696D01*
X55967Y65983D01*
X54983Y66967D01*
X54977Y66970D01*
X54967Y67017D01*
X55500Y68304D01*
Y69696D01*
X54967Y70983D01*
X53983Y71967D01*
X52696Y72500D01*
D02*
G37*
G36*
X34696Y67500D02*
X33304D01*
X32017Y66967D01*
X31033Y65983D01*
X30500Y64696D01*
Y63304D01*
X31033Y62017D01*
X32017Y61033D01*
X33304Y60500D01*
X34696D01*
X35983Y61033D01*
X36967Y62017D01*
X37500Y63304D01*
Y64696D01*
X36967Y65983D01*
X35983Y66967D01*
X34696Y67500D01*
D02*
G37*
G36*
X71560Y67481D02*
X70167D01*
X68881Y66948D01*
X67896Y65964D01*
X67364Y64677D01*
Y63285D01*
X67896Y61999D01*
X68881Y61014D01*
X70167Y60481D01*
X71560D01*
X72846Y61014D01*
X73831Y61999D01*
X74364Y63285D01*
Y64677D01*
X73831Y65964D01*
X72846Y66948D01*
X71560Y67481D01*
D02*
G37*
G36*
X108441Y70777D02*
X107048D01*
X105762Y70244D01*
X104777Y69259D01*
X104244Y67973D01*
Y66580D01*
X104777Y65294D01*
X105761Y64310D01*
X105250Y63075D01*
Y61683D01*
X105783Y60396D01*
X106767Y59412D01*
X108054Y58879D01*
X109446D01*
X110733Y59412D01*
X111717Y60396D01*
X112250Y61683D01*
Y63075D01*
X111717Y64361D01*
X110733Y65345D01*
X111244Y66580D01*
Y67973D01*
X110712Y69259D01*
X109727Y70244D01*
X108441Y70777D01*
D02*
G37*
G36*
X149696Y56500D02*
X148304D01*
X147017Y55967D01*
X146033Y54983D01*
X145500Y53696D01*
Y52304D01*
X145638Y51971D01*
X144616Y51119D01*
X143696Y51500D01*
X142304D01*
X141017Y50967D01*
X140033Y49983D01*
X139500Y48696D01*
Y47304D01*
X140033Y46017D01*
X141017Y45033D01*
X141902Y44667D01*
X141500Y43696D01*
Y42304D01*
X142033Y41017D01*
X143017Y40033D01*
X144304Y39500D01*
X145696D01*
X146983Y40033D01*
X147967Y41017D01*
X148500Y42304D01*
Y43696D01*
X147967Y44983D01*
X146983Y45967D01*
X146098Y46333D01*
X146500Y47304D01*
Y48696D01*
X146362Y49029D01*
X147384Y49881D01*
X148304Y49500D01*
X149696D01*
X150983Y50033D01*
X151967Y51017D01*
X152500Y52304D01*
Y53696D01*
X151967Y54983D01*
X150983Y55967D01*
X149696Y56500D01*
D02*
G37*
G36*
X41696Y54500D02*
X40304D01*
X39017Y53967D01*
X38033Y52983D01*
X37500Y51696D01*
Y50304D01*
X38033Y49017D01*
X39017Y48033D01*
X40304Y47500D01*
X41696D01*
X42983Y48033D01*
X43375Y48425D01*
X44017Y47783D01*
X45304Y47250D01*
X46696D01*
X47983Y47783D01*
X48967Y48767D01*
X49500Y50054D01*
Y51446D01*
X48967Y52733D01*
X47983Y53717D01*
X46696Y54250D01*
X45304D01*
X44017Y53717D01*
X43625Y53325D01*
X42983Y53967D01*
X41696Y54500D01*
D02*
G37*
G36*
X7696Y54500D02*
X6304D01*
X5017Y53967D01*
X4033Y52983D01*
X3500Y51696D01*
Y50304D01*
X4033Y49018D01*
X5017Y48033D01*
X6304Y47500D01*
X6317D01*
X6570Y46230D01*
X5611Y45833D01*
X4626Y44848D01*
X4093Y43562D01*
Y42169D01*
X4626Y40883D01*
X5611Y39899D01*
X6897Y39366D01*
X8290D01*
X9576Y39899D01*
X10560Y40883D01*
X11093Y42169D01*
Y43562D01*
X10560Y44848D01*
X9576Y45833D01*
X8290Y46366D01*
X8276D01*
X8024Y47636D01*
X8983Y48033D01*
X9967Y49018D01*
X10500Y50304D01*
Y51696D01*
X9967Y52983D01*
X8983Y53967D01*
X7696Y54500D01*
D02*
G37*
G36*
X44696Y45500D02*
X43304D01*
X42017Y44967D01*
X41033Y43983D01*
X40500Y42696D01*
Y41304D01*
X41033Y40017D01*
X42017Y39033D01*
X43304Y38500D01*
X44696D01*
X45983Y39033D01*
X46967Y40017D01*
X47500Y41304D01*
Y42696D01*
X46967Y43983D01*
X45983Y44967D01*
X44696Y45500D01*
D02*
G37*
G36*
X84446Y54750D02*
X83054D01*
X81767Y54217D01*
X80783Y53233D01*
X80250Y51946D01*
Y50554D01*
X80471Y50020D01*
X80327Y48929D01*
X79812Y48546D01*
X79017Y48217D01*
X78033Y47233D01*
X77500Y45946D01*
Y44554D01*
X78033Y43267D01*
X78675Y42625D01*
X78033Y41983D01*
X77500Y40696D01*
Y39304D01*
X78033Y38017D01*
X79017Y37033D01*
X80304Y36500D01*
X81696D01*
X82983Y37033D01*
X83967Y38017D01*
X84500Y39304D01*
Y40696D01*
X83967Y41983D01*
X83325Y42625D01*
X83967Y43267D01*
X84500Y44554D01*
Y45946D01*
X84279Y46480D01*
X84423Y47571D01*
X84938Y47954D01*
X85733Y48283D01*
X86717Y49267D01*
X87250Y50554D01*
Y51946D01*
X86717Y53233D01*
X85733Y54217D01*
X84446Y54750D01*
D02*
G37*
G36*
X119696D02*
X118304D01*
X117017Y54217D01*
X116033Y53233D01*
X115500Y51946D01*
Y50554D01*
X116033Y49267D01*
X116471Y48830D01*
X116878Y48000D01*
X116471Y47170D01*
X116033Y46733D01*
X115500Y45446D01*
Y44054D01*
X115895Y43101D01*
X116024Y42752D01*
X115385Y41619D01*
X115017Y41467D01*
X114033Y40483D01*
X113500Y39196D01*
Y37804D01*
X114033Y36517D01*
X115017Y35533D01*
X116304Y35000D01*
X117696D01*
X118983Y35533D01*
X119967Y36517D01*
X120500Y37804D01*
Y39196D01*
X120105Y40149D01*
X119976Y40498D01*
X120615Y41631D01*
X120983Y41783D01*
X121967Y42767D01*
X122500Y44054D01*
Y45446D01*
X121967Y46733D01*
X121529Y47170D01*
X121122Y48000D01*
X121529Y48830D01*
X121967Y49267D01*
X122500Y50554D01*
Y51946D01*
X121967Y53233D01*
X120983Y54217D01*
X119696Y54750D01*
D02*
G37*
G36*
X70696Y31500D02*
X69304D01*
X68017Y30967D01*
X67033Y29983D01*
X66500Y28696D01*
Y27304D01*
X67033Y26017D01*
X68017Y25033D01*
X69304Y24500D01*
X70696D01*
X71983Y25033D01*
X72967Y26017D01*
X73500Y27304D01*
Y28696D01*
X72967Y29983D01*
X71983Y30967D01*
X70696Y31500D01*
D02*
G37*
G36*
X56696D02*
X55304D01*
X54017Y30967D01*
X53033Y29983D01*
X52500Y28696D01*
Y27304D01*
X53033Y26017D01*
X54017Y25033D01*
X55304Y24500D01*
X56696D01*
X57983Y25033D01*
X58967Y26017D01*
X59500Y27304D01*
Y28696D01*
X58967Y29983D01*
X57983Y30967D01*
X56696Y31500D01*
D02*
G37*
G36*
X94696Y30500D02*
X93304D01*
X92017Y29967D01*
X91033Y28983D01*
X90500Y27696D01*
Y26304D01*
X91033Y25017D01*
X92017Y24033D01*
X93304Y23500D01*
X94696D01*
X95983Y24033D01*
X96967Y25017D01*
X97500Y26304D01*
Y27696D01*
X96967Y28983D01*
X95983Y29967D01*
X94696Y30500D01*
D02*
G37*
G36*
X108696Y28500D02*
X107304D01*
X106017Y27967D01*
X105033Y26983D01*
X104500Y25696D01*
Y24304D01*
X105033Y23017D01*
X106017Y22033D01*
X107304Y21500D01*
X108696D01*
X109983Y22033D01*
X110967Y23017D01*
X111500Y24304D01*
Y25696D01*
X110967Y26983D01*
X109983Y27967D01*
X108696Y28500D01*
D02*
G37*
G36*
X35696Y26500D02*
X34304D01*
X33017Y25967D01*
X32033Y24983D01*
X31500Y23696D01*
Y22304D01*
X32033Y21017D01*
X33017Y20033D01*
X34304Y19500D01*
X35696D01*
X36983Y20033D01*
X37967Y21017D01*
X38500Y22304D01*
Y23696D01*
X37967Y24983D01*
X36983Y25967D01*
X35696Y26500D01*
D02*
G37*
G36*
X17696Y25500D02*
X16304D01*
X15017Y24967D01*
X14033Y23983D01*
X13500Y22696D01*
Y21304D01*
X14033Y20017D01*
X15017Y19033D01*
X16304Y18500D01*
X17696D01*
X18983Y19033D01*
X19967Y20017D01*
X20500Y21304D01*
Y22696D01*
X19967Y23983D01*
X18983Y24967D01*
X17696Y25500D01*
D02*
G37*
%LPD*%
D64*
X186750Y131650D02*
D03*
Y106250D02*
D03*
Y42750D02*
D03*
D66*
X60550Y8750D02*
D03*
X22450D02*
D03*
X98650D02*
D03*
X61050Y157250D02*
D03*
X22950D02*
D03*
X99150D02*
D03*
D67*
X124050Y8750D02*
D03*
X124550Y157250D02*
D03*
D73*
X72075Y99993D02*
D03*
X171278Y87749D02*
D03*
X13066Y107111D02*
D03*
X5000Y115000D02*
D03*
X17500D02*
D03*
Y127500D02*
D03*
Y137000D02*
D03*
Y143750D02*
D03*
X132882Y62337D02*
D03*
X79389Y15862D02*
D03*
X154544Y148109D02*
D03*
X145204Y140485D02*
D03*
X178259Y71291D02*
D03*
X139889Y80977D02*
D03*
X133705Y80904D02*
D03*
X71388Y69485D02*
D03*
X162496Y45244D02*
D03*
X176700Y45657D02*
D03*
X170476Y99515D02*
D03*
X177383Y112128D02*
D03*
X23930Y18960D02*
D03*
X94124Y86747D02*
D03*
X48738Y88272D02*
D03*
X66675Y81051D02*
D03*
X76175Y89503D02*
D03*
X60374Y89553D02*
D03*
X44459Y132580D02*
D03*
X175000Y125000D02*
D03*
X165410Y56626D02*
D03*
X176863Y55641D02*
D03*
X170000Y35000D02*
D03*
X175000Y160000D02*
D03*
X185000D02*
D03*
X190000Y155000D02*
D03*
X95000Y140000D02*
D03*
X119010Y146783D02*
D03*
X117384Y120318D02*
D03*
X147666Y122695D02*
D03*
X129959Y17773D02*
D03*
X143974Y19649D02*
D03*
X146289Y31600D02*
D03*
X86393Y23099D02*
D03*
X43726Y21917D02*
D03*
X10000Y20000D02*
D03*
X5000Y25000D02*
D03*
X37500Y122000D02*
D03*
X65250Y146250D02*
D03*
X79250Y146750D02*
D03*
X99250Y145750D02*
D03*
X189001Y18000D02*
D03*
X184001Y8000D02*
D03*
X174001Y148000D02*
D03*
Y28000D02*
D03*
X179001Y18000D02*
D03*
X174001Y8000D02*
D03*
X169001Y138000D02*
D03*
X164001Y28000D02*
D03*
X169001Y18000D02*
D03*
X159001D02*
D03*
X144001Y148000D02*
D03*
X139001Y138000D02*
D03*
X119001D02*
D03*
X79001D02*
D03*
X54001Y148000D02*
D03*
X59001Y138000D02*
D03*
X44001Y148000D02*
D03*
X34001D02*
D03*
X39001Y138000D02*
D03*
X29001D02*
D03*
X76250Y118000D02*
D03*
X81500Y116750D02*
D03*
X48000Y58750D02*
D03*
X135000Y55000D02*
D03*
X70000Y116000D02*
D03*
X119000Y85000D02*
D03*
X19000Y68000D02*
D03*
X28000Y81000D02*
D03*
X61500Y49000D02*
D03*
X110000Y99000D02*
D03*
X87000Y63000D02*
D03*
X47000Y63500D02*
D03*
X112000Y39000D02*
D03*
X58000Y81000D02*
D03*
X57000Y100000D02*
D03*
X78429Y99472D02*
D03*
X137000Y126000D02*
D03*
X119000Y100000D02*
D03*
X75000Y39000D02*
D03*
X102500Y54000D02*
D03*
X163000Y63000D02*
D03*
X63286Y28842D02*
D03*
X25786D02*
D03*
X86850Y38349D02*
D03*
X100786Y28842D02*
D03*
X97500Y54000D02*
D03*
X119000Y66000D02*
D03*
X150000Y103000D02*
D03*
X131965Y102963D02*
D03*
X33894Y93037D02*
D03*
X58963Y127158D02*
D03*
X96463D02*
D03*
X110399Y116651D02*
D03*
X94749Y101000D02*
D03*
X99749D02*
D03*
X44513Y116472D02*
D03*
X62249Y101000D02*
D03*
X17599Y94900D02*
D03*
X7092Y80964D02*
D03*
X33250Y84250D02*
D03*
Y79250D02*
D03*
X49350Y38349D02*
D03*
X60000Y53500D02*
D03*
X65000D02*
D03*
X40236Y38528D02*
D03*
X12500Y59000D02*
D03*
X11850Y38349D02*
D03*
X22500Y54000D02*
D03*
X27500D02*
D03*
M02*
